<svg width="462" height="130" viewBox="0 0 462 130" fill="none" xmlns="http://www.w3.org/2000/svg">
<path d="M98.688 10.608L81.12 78H61.248L50.496 33.648L39.36 78H19.488L2.4 10.608H19.968L29.664 59.664L41.664 10.608H59.712L71.232 59.664L81.024 10.608H98.688ZM158.377 50.352C158.377 51.888 158.281 53.488 158.089 55.152H120.937C121.193 58.48 122.249 61.04 124.105 62.832C126.025 64.56 128.361 65.424 131.113 65.424C135.209 65.424 138.057 63.696 139.657 60.24H157.129C156.233 63.76 154.601 66.928 152.233 69.744C149.929 72.56 147.017 74.768 143.497 76.368C139.977 77.968 136.041 78.768 131.689 78.768C126.441 78.768 121.769 77.648 117.673 75.408C113.577 73.168 110.377 69.968 108.073 65.808C105.769 61.648 104.617 56.784 104.617 51.216C104.617 45.648 105.737 40.784 107.977 36.624C110.281 32.464 113.481 29.264 117.577 27.024C121.673 24.784 126.377 23.664 131.689 23.664C136.873 23.664 141.481 24.752 145.513 26.928C149.545 29.104 152.681 32.208 154.921 36.24C157.225 40.272 158.377 44.976 158.377 50.352ZM141.577 46.032C141.577 43.216 140.617 40.976 138.697 39.312C136.777 37.648 134.377 36.816 131.497 36.816C128.745 36.816 126.409 37.616 124.489 39.216C122.633 40.816 121.481 43.088 121.033 46.032H141.577Z" fill="black"/>
<path d="M189.789 78.768C185.117 78.768 180.957 77.968 177.309 76.368C173.661 74.768 170.781 72.592 168.669 69.84C166.557 67.024 165.373 63.888 165.117 60.432H181.341C181.533 62.288 182.397 63.792 183.933 64.944C185.469 66.096 187.357 66.672 189.597 66.672C191.645 66.672 193.213 66.288 194.301 65.52C195.453 64.688 196.029 63.632 196.029 62.352C196.029 60.816 195.229 59.696 193.629 58.992C192.029 58.224 189.437 57.392 185.853 56.496C182.013 55.6 178.813 54.672 176.253 53.712C173.693 52.688 171.485 51.12 169.629 49.008C167.773 46.832 166.845 43.92 166.845 40.272C166.845 37.2 167.677 34.416 169.341 31.92C171.069 29.36 173.565 27.344 176.829 25.872C180.157 24.4 184.093 23.664 188.637 23.664C195.357 23.664 200.637 25.328 204.477 28.656C208.381 31.984 210.621 36.4 211.197 41.904H196.029C195.773 40.048 194.941 38.576 193.533 37.488C192.189 36.4 190.397 35.856 188.157 35.856C186.237 35.856 184.765 36.24 183.741 37.008C182.717 37.712 182.205 38.704 182.205 39.984C182.205 41.52 183.005 42.672 184.605 43.44C186.269 44.208 188.829 44.976 192.285 45.744C196.253 46.768 199.485 47.792 201.981 48.816C204.477 49.776 206.653 51.376 208.509 53.616C210.429 55.792 211.421 58.736 211.485 62.448C211.485 65.584 210.589 68.4 208.797 70.896C207.069 73.328 204.541 75.248 201.213 76.656C197.949 78.064 194.141 78.768 189.789 78.768ZM255.416 23.856C261.56 23.856 266.488 25.904 270.2 30C273.912 34.032 275.768 39.6 275.768 46.704V78H259.448V48.912C259.448 45.328 258.52 42.544 256.664 40.56C254.808 38.576 252.312 37.584 249.176 37.584C246.04 37.584 243.544 38.576 241.688 40.56C239.832 42.544 238.904 45.328 238.904 48.912V78H222.488V6.96H238.904V31.632C240.568 29.264 242.84 27.376 245.72 25.968C248.6 24.56 251.832 23.856 255.416 23.856ZM312.52 78.768C307.272 78.768 302.536 77.648 298.312 75.408C294.152 73.168 290.856 69.968 288.424 65.808C286.056 61.648 284.872 56.784 284.872 51.216C284.872 45.712 286.088 40.88 288.52 36.72C290.952 32.496 294.28 29.264 298.504 27.024C302.728 24.784 307.464 23.664 312.712 23.664C317.96 23.664 322.696 24.784 326.92 27.024C331.144 29.264 334.472 32.496 336.904 36.72C339.336 40.88 340.552 45.712 340.552 51.216C340.552 56.72 339.304 61.584 336.808 65.808C334.376 69.968 331.016 73.168 326.728 75.408C322.504 77.648 317.768 78.768 312.52 78.768ZM312.52 64.56C315.656 64.56 318.312 63.408 320.488 61.104C322.728 58.8 323.848 55.504 323.848 51.216C323.848 46.928 322.76 43.632 320.584 41.328C318.472 39.024 315.848 37.872 312.712 37.872C309.512 37.872 306.856 39.024 304.744 41.328C302.632 43.568 301.576 46.864 301.576 51.216C301.576 55.504 302.6 58.8 304.648 61.104C306.76 63.408 309.384 64.56 312.52 64.56ZM366.637 32.016C368.237 29.52 370.445 27.504 373.261 25.968C376.077 24.432 379.373 23.664 383.149 23.664C387.565 23.664 391.565 24.784 395.149 27.024C398.733 29.264 401.549 32.464 403.597 36.624C405.709 40.784 406.765 45.616 406.765 51.12C406.765 56.624 405.709 61.488 403.597 65.712C401.549 69.872 398.733 73.104 395.149 75.408C391.565 77.648 387.565 78.768 383.149 78.768C379.437 78.768 376.141 78 373.261 76.464C370.445 74.928 368.237 72.944 366.637 70.512V103.536H350.221V24.432H366.637V32.016ZM390.061 51.12C390.061 47.024 388.909 43.824 386.605 41.52C384.365 39.152 381.581 37.968 378.253 37.968C374.989 37.968 372.205 39.152 369.901 41.52C367.661 43.888 366.541 47.12 366.541 51.216C366.541 55.312 367.661 58.544 369.901 60.912C372.205 63.28 374.989 64.464 378.253 64.464C381.517 64.464 384.301 63.28 386.605 60.912C388.909 58.48 390.061 55.216 390.061 51.12ZM424.017 78.768C421.137 78.768 418.769 77.936 416.913 76.272C415.121 74.544 414.225 72.432 414.225 69.936C414.225 67.376 415.121 65.232 416.913 63.504C418.769 61.776 421.137 60.912 424.017 60.912C426.833 60.912 429.137 61.776 430.929 63.504C432.785 65.232 433.713 67.376 433.713 69.936C433.713 72.432 432.785 74.544 430.929 76.272C429.137 77.936 426.833 78.768 424.017 78.768Z" fill="#F47113"/>
<path d="M123 84.9469C140 100 169 108.754 192.644 84.3926L207.143 84.5548C191.594 103.715 150.024 130.619 108.132 84.9469L123 84.9469Z" fill="black" stroke="black"/>
</svg>
