<?xml version="1.0" encoding="UTF-8"?>
<svg xmlns="http://www.w3.org/2000/svg" xmlns:xlink="http://www.w3.org/1999/xlink" width="262px" height="74px" viewBox="0 0 262 74" version="1.1">
<g id="surface1">
<path style=" stroke:none;fill-rule:nonzero;fill:rgb(0%,0%,0%);fill-opacity:1;" d="M 55.964844 6.039062 L 46.003906 44.398438 L 34.734375 44.398438 L 28.636719 19.152344 L 22.320312 44.398438 L 11.050781 44.398438 L 1.359375 6.039062 L 11.324219 6.039062 L 16.824219 33.960938 L 23.628906 6.039062 L 33.863281 6.039062 L 40.394531 33.960938 L 45.949219 6.039062 Z M 89.816406 28.660156 C 89.816406 29.535156 89.761719 30.445312 89.652344 31.394531 L 68.582031 31.394531 C 68.726562 33.289062 69.328125 34.746094 70.378906 35.765625 C 71.46875 36.75 72.792969 37.242188 74.355469 37.242188 C 76.675781 37.242188 78.292969 36.257812 79.199219 34.289062 L 89.109375 34.289062 C 88.601562 36.292969 87.675781 38.097656 86.332031 39.699219 C 85.023438 41.304688 83.375 42.558594 81.378906 43.472656 C 79.382812 44.382812 77.148438 44.835938 74.679688 44.835938 C 71.703125 44.835938 69.054688 44.199219 66.730469 42.925781 C 64.410156 41.648438 62.59375 39.828125 61.289062 37.460938 C 59.980469 35.09375 59.328125 32.324219 59.328125 29.152344 C 59.328125 25.984375 59.964844 23.214844 61.234375 20.847656 C 62.539062 18.480469 64.355469 16.65625 66.679688 15.382812 C 69 14.109375 71.667969 13.46875 74.679688 13.46875 C 77.621094 13.46875 80.234375 14.089844 82.519531 15.328125 C 84.808594 16.566406 86.585938 18.332031 87.855469 20.628906 C 89.164062 22.925781 89.816406 25.601562 89.816406 28.660156 Z M 80.289062 26.203125 C 80.289062 24.601562 79.742188 23.324219 78.65625 22.378906 C 77.566406 21.429688 76.207031 20.957031 74.570312 20.957031 C 73.011719 20.957031 71.6875 21.414062 70.597656 22.324219 C 69.546875 23.234375 68.890625 24.527344 68.636719 26.203125 Z M 107.628906 44.835938 C 104.980469 44.835938 102.621094 44.382812 100.550781 43.472656 C 98.484375 42.558594 96.851562 41.320312 95.652344 39.753906 C 94.453125 38.152344 93.78125 36.367188 93.636719 34.398438 L 102.839844 34.398438 C 102.949219 35.457031 103.4375 36.3125 104.308594 36.96875 C 105.179688 37.625 106.25 37.953125 107.519531 37.953125 C 108.683594 37.953125 109.570312 37.734375 110.1875 37.296875 C 110.839844 36.824219 111.167969 36.222656 111.167969 35.492188 C 111.167969 34.617188 110.714844 33.980469 109.808594 33.578125 C 108.898438 33.144531 107.429688 32.667969 105.398438 32.160156 C 103.21875 31.648438 101.40625 31.121094 99.953125 30.574219 C 98.5 29.992188 97.25 29.097656 96.195312 27.898438 C 95.144531 26.660156 94.617188 25 94.617188 22.925781 C 94.617188 21.175781 95.089844 19.589844 96.035156 18.167969 C 97.011719 16.710938 98.429688 15.566406 100.28125 14.726562 C 102.167969 13.890625 104.398438 13.46875 106.976562 13.46875 C 110.785156 13.46875 113.78125 14.417969 115.957031 16.3125 C 118.171875 18.207031 119.441406 20.71875 119.769531 23.851562 L 111.167969 23.851562 C 111.023438 22.796875 110.550781 21.957031 109.753906 21.339844 C 108.992188 20.71875 107.972656 20.410156 106.703125 20.410156 C 105.613281 20.410156 104.78125 20.628906 104.199219 21.066406 C 103.617188 21.46875 103.328125 22.03125 103.328125 22.761719 C 103.328125 23.632812 103.78125 24.289062 104.6875 24.726562 C 105.632812 25.164062 107.085938 25.601562 109.042969 26.039062 C 111.296875 26.621094 113.128906 27.203125 114.542969 27.789062 C 115.957031 28.335938 117.191406 29.246094 118.246094 30.519531 C 119.335938 31.757812 119.898438 33.433594 119.933594 35.546875 C 119.933594 37.332031 119.425781 38.933594 118.410156 40.355469 C 117.429688 41.742188 115.996094 42.832031 114.109375 43.636719 C 112.257812 44.4375 110.097656 44.835938 107.628906 44.835938 Z M 144.847656 13.578125 C 148.332031 13.578125 151.125 14.746094 153.230469 17.078125 C 155.335938 19.371094 156.386719 22.542969 156.386719 26.585938 L 156.386719 44.398438 L 147.132812 44.398438 L 147.132812 27.84375 C 147.132812 25.800781 146.605469 24.21875 145.554688 23.089844 C 144.5 21.957031 143.085938 21.394531 141.308594 21.394531 C 139.527344 21.394531 138.113281 21.957031 137.0625 23.089844 C 136.007812 24.21875 135.480469 25.800781 135.480469 27.84375 L 135.480469 44.398438 L 126.171875 44.398438 L 126.171875 3.960938 L 135.480469 3.960938 L 135.480469 18.007812 C 136.425781 16.65625 137.714844 15.582031 139.347656 14.78125 C 140.980469 13.980469 142.8125 13.578125 144.847656 13.578125 Z M 177.230469 44.835938 C 174.253906 44.835938 171.566406 44.199219 169.171875 42.925781 C 166.8125 41.648438 164.945312 39.828125 163.566406 37.460938 C 162.222656 35.09375 161.550781 32.324219 161.550781 29.152344 C 161.550781 26.019531 162.242188 23.269531 163.621094 20.902344 C 165 18.496094 166.886719 16.65625 169.28125 15.382812 C 171.675781 14.109375 174.363281 13.46875 177.339844 13.46875 C 180.316406 13.46875 183 14.109375 185.394531 15.382812 C 187.792969 16.65625 189.679688 18.496094 191.058594 20.902344 C 192.4375 23.269531 193.125 26.019531 193.125 29.152344 C 193.125 32.285156 192.417969 35.054688 191.003906 37.460938 C 189.625 39.828125 187.71875 41.648438 185.289062 42.925781 C 182.890625 44.199219 180.207031 44.835938 177.230469 44.835938 Z M 177.230469 36.75 C 179.007812 36.75 180.515625 36.09375 181.75 34.78125 C 183.019531 33.472656 183.652344 31.59375 183.652344 29.152344 C 183.652344 26.710938 183.035156 24.835938 181.804688 23.523438 C 180.605469 22.214844 179.117188 21.558594 177.339844 21.558594 C 175.523438 21.558594 174.019531 22.214844 172.820312 23.523438 C 171.621094 24.800781 171.023438 26.675781 171.023438 29.152344 C 171.023438 31.59375 171.605469 33.472656 172.765625 34.78125 C 173.964844 36.09375 175.453125 36.75 177.230469 36.75 Z M 207.917969 18.222656 C 208.828125 16.804688 210.078125 15.65625 211.675781 14.78125 C 213.273438 13.90625 215.140625 13.46875 217.285156 13.46875 C 219.789062 13.46875 222.054688 14.109375 224.089844 15.382812 C 226.121094 16.65625 227.71875 18.480469 228.878906 20.847656 C 230.078125 23.214844 230.675781 25.964844 230.675781 29.097656 C 230.675781 32.230469 230.078125 35 228.878906 37.40625 C 227.71875 39.773438 226.121094 41.613281 224.089844 42.925781 C 222.054688 44.199219 219.789062 44.835938 217.285156 44.835938 C 215.179688 44.835938 213.308594 44.398438 211.675781 43.527344 C 210.078125 42.652344 208.828125 41.523438 207.917969 40.136719 L 207.917969 58.9375 L 198.609375 58.9375 L 198.609375 13.90625 L 207.917969 13.90625 Z M 221.203125 29.097656 C 221.203125 26.765625 220.550781 24.945312 219.242188 23.632812 C 217.972656 22.285156 216.394531 21.613281 214.507812 21.613281 C 212.65625 21.613281 211.078125 22.285156 209.769531 23.632812 C 208.5 24.980469 207.867188 26.820312 207.867188 29.152344 C 207.867188 31.484375 208.5 33.324219 209.769531 34.671875 C 211.078125 36.019531 212.65625 36.695312 214.507812 36.695312 C 216.359375 36.695312 217.9375 36.019531 219.242188 34.671875 C 220.550781 33.289062 221.203125 31.429688 221.203125 29.097656 Z M 240.460938 44.835938 C 238.828125 44.835938 237.484375 44.363281 236.429688 43.417969 C 235.414062 42.433594 234.90625 41.230469 234.90625 39.808594 C 234.90625 38.351562 235.414062 37.132812 236.429688 36.148438 C 237.484375 35.164062 238.828125 34.671875 240.460938 34.671875 C 242.058594 34.671875 243.363281 35.164062 244.378906 36.148438 C 245.433594 37.132812 245.957031 38.351562 245.957031 39.808594 C 245.957031 41.230469 245.433594 42.433594 244.378906 43.417969 C 243.363281 44.363281 242.058594 44.835938 240.460938 44.835938 Z M 240.460938 44.835938 "/>
<path style="fill-rule:nonzero;fill:rgb(0%,0%,0%);fill-opacity:1;stroke-width:1;stroke-linecap:butt;stroke-linejoin:miter;stroke:rgb(0%,0%,0%);stroke-opacity:1;stroke-miterlimit:4;" d="M 123.001163 84.948796 C 140.001044 99.997889 169.00003 108.754223 192.646947 84.392948 L 207.14644 84.557644 C 191.593064 103.717272 150.023259 130.61761 108.129711 84.948796 Z M 123.001163 84.948796 " transform="matrix(0.5671,0,0,0.569231,0,0)"/>
</g>
</svg>
