<svg width="254" height="23" viewBox="0 0 254 23" fill="none" xmlns="http://www.w3.org/2000/svg">
<path d="M25.35 19.06C25.43 19.54 25.65 20 26.01 20.44C26.39 20.86 26.58 21.18 26.58 21.4V21.49C26.58 21.83 26.35 22 25.89 22H20.49C20.03 22 19.8 21.83 19.8 21.49V21.4C19.8 21.22 20 20.91 20.4 20.47C20.8 20.03 20.95 19.56 20.85 19.06L18.75 7.15L13.68 21.16C13.5 21.7 13.18 21.97 12.72 21.97C12.22 21.97 11.85 21.71 11.61 21.19L6.06 6.61L4.14 19.06C4.06 19.56 4.22 20.03 4.62 20.47C5.02 20.91 5.22 21.22 5.22 21.4V21.49C5.22 21.83 5 22 4.56 22H1.17C0.73 22 0.51 21.83 0.51 21.49V21.4C0.51 21.18 0.69 20.86 1.05 20.44C1.41 20 1.63 19.54 1.71 19.06L4.2 3.61C4.26 3.15 4.09 2.7 3.69 2.26C3.29 1.82 3.09 1.5 3.09 1.3V1.21C3.09 0.869999 3.3 0.699999 3.72 0.699999H7.02C7.76 0.699999 8.25 1.03 8.49 1.69L13.35 15.82L18.15 1.69C18.39 1.03 18.85 0.699999 19.53 0.699999H22.98C23.4 0.699999 23.61 0.859999 23.61 1.18V1.3C23.61 1.5 23.49 1.71 23.25 1.93C23.03 2.15 22.83 2.41 22.65 2.71C22.47 2.99 22.41 3.33 22.47 3.73L25.35 19.06ZM31.4224 21.49V21.4C31.4224 21.2 31.6124 20.89 31.9924 20.47C32.3724 20.05 32.5624 19.6 32.5624 19.12V3.58C32.5624 3.12 32.3724 2.68 31.9924 2.26C31.6124 1.82 31.4224 1.5 31.4224 1.3V1.18C31.4224 0.859999 31.6424 0.699999 32.0824 0.699999H37.6924C38.1324 0.699999 38.3524 0.859999 38.3524 1.18V1.3C38.3524 1.5 38.1424 1.82 37.7224 2.26C37.3024 2.68 37.0924 3.12 37.0924 3.58V19.12C37.0924 19.6 37.3024 20.05 37.7224 20.47C38.1424 20.89 38.3524 21.2 38.3524 21.4V21.49C38.3524 21.83 38.1324 22 37.6924 22H32.0824C31.6424 22 31.4224 21.83 31.4224 21.49ZM52.5176 22.3C49.8576 22.3 47.7076 21.74 46.0676 20.62C44.4476 19.48 43.6376 18.24 43.6376 16.9C43.6376 16.34 43.7876 15.9 44.0876 15.58C44.3876 15.24 44.8376 15.07 45.4376 15.07C45.9776 15.09 46.4376 15.29 46.8176 15.67C47.2176 16.05 47.5576 16.51 47.8376 17.05C48.1376 17.59 48.4576 18.13 48.7976 18.67C49.1376 19.19 49.6376 19.64 50.2976 20.02C50.9576 20.4 51.7576 20.59 52.6976 20.59C53.7576 20.59 54.5976 20.32 55.2176 19.78C55.8576 19.22 56.1776 18.48 56.1776 17.56C56.1776 16.7 55.9476 15.99 55.4876 15.43C55.0476 14.87 54.4676 14.45 53.7476 14.17C53.0476 13.87 52.2676 13.62 51.4076 13.42C50.5476 13.2 49.6876 12.95 48.8276 12.67C47.9676 12.39 47.1776 12.04 46.4576 11.62C45.7376 11.18 45.1476 10.55 44.6876 9.73C44.2476 8.89 44.0276 7.87 44.0276 6.67C44.0276 4.83 44.7376 3.33 46.1576 2.17C47.5976 1.01 49.5376 0.429999 51.9776 0.429999C54.3776 0.429999 56.3676 0.969999 57.9476 2.05C59.5476 3.11 60.3376 4.3 60.3176 5.62C60.3176 6.86 59.6776 7.48 58.3976 7.48C57.7976 7.48 57.2976 7.3 56.8976 6.94C56.5176 6.56 56.1976 6.11 55.9376 5.59C55.6976 5.07 55.4376 4.55 55.1576 4.03C54.8776 3.51 54.4576 3.07 53.8976 2.71C53.3576 2.33 52.6876 2.14 51.8876 2.14C50.7876 2.14 49.9476 2.43 49.3676 3.01C48.7876 3.59 48.4976 4.33 48.4976 5.23C48.4976 6.09 48.7176 6.81 49.1576 7.39C49.6176 7.97 50.1976 8.41 50.8976 8.71C51.6176 9.01 52.4076 9.28 53.2676 9.52C54.1276 9.74 54.9876 10 55.8476 10.3C56.7076 10.58 57.4876 10.93 58.1876 11.35C58.9076 11.77 59.4876 12.39 59.9276 13.21C60.3876 14.03 60.6176 15.02 60.6176 16.18C60.6176 18.06 59.8376 19.55 58.2776 20.65C56.7176 21.75 54.7976 22.3 52.5176 22.3ZM66.5883 22C66.1283 22 65.8983 21.83 65.8983 21.49V21.4C65.8983 21.2 66.0883 20.89 66.4683 20.47C66.8683 20.03 67.0683 19.57 67.0683 19.09V3.61C67.0683 3.11 66.8683 2.65 66.4683 2.23C66.0883 1.81 65.8983 1.5 65.8983 1.3V1.18C65.8983 0.859999 66.1183 0.699999 66.5583 0.699999H79.9383C80.4783 0.699999 80.7883 0.979999 80.8683 1.54L81.5883 5.05C81.6883 5.57 81.4883 5.83 80.9883 5.83H80.8083C80.5083 5.83 80.1783 5.66 79.8183 5.32C79.4783 4.96 79.1683 4.58 78.8883 4.18C78.6283 3.76 78.2883 3.38 77.8683 3.04C77.4683 2.68 77.0483 2.5 76.6083 2.5H72.7683C71.9683 2.5 71.5683 2.93 71.5683 3.79V10.24H75.4383C75.7783 10.24 76.0683 10.13 76.3083 9.91C76.5683 9.67 76.7583 9.42 76.8783 9.16C76.9983 8.88 77.1383 8.63 77.2983 8.41C77.4783 8.17 77.6483 8.05 77.8083 8.05H78.0483C78.3883 8.05 78.5583 8.26 78.5583 8.68V13.51C78.5583 13.93 78.3883 14.14 78.0483 14.14H77.8083C77.6483 14.14 77.4783 14.03 77.2983 13.81C77.1383 13.59 76.9983 13.36 76.8783 13.12C76.7583 12.86 76.5683 12.62 76.3083 12.4C76.0683 12.18 75.7783 12.07 75.4383 12.07H71.5683L71.5383 18.34C71.5383 18.84 71.6683 19.28 71.9283 19.66C72.1883 20.02 72.5883 20.2 73.1283 20.2H77.5383C77.9783 20.2 78.3883 20.02 78.7683 19.66C79.1683 19.3 79.4783 18.9 79.6983 18.46C79.9383 18.02 80.2283 17.62 80.5683 17.26C80.9083 16.9 81.2483 16.72 81.5883 16.72H81.8283C82.0283 16.72 82.1783 16.8 82.2783 16.96C82.3783 17.12 82.4083 17.3 82.3683 17.5L81.7083 21.13C81.5883 21.71 81.2683 22 80.7483 22H66.5883ZM104.365 19.12C104.625 19.52 104.935 19.87 105.295 20.17C105.675 20.45 105.975 20.68 106.195 20.86C106.415 21.02 106.525 21.2 106.525 21.4V21.49C106.525 21.83 106.295 22 105.835 22H99.5653C99.1253 22 98.9053 21.83 98.9053 21.49V21.4C98.9053 21.22 99.0153 21.02 99.2353 20.8C99.4753 20.56 99.6353 20.35 99.7153 20.17C99.8153 19.97 99.7653 19.62 99.5653 19.12L96.4153 13.9L93.1153 13.96V19.12C93.1153 19.58 93.3253 20.03 93.7453 20.47C94.1853 20.89 94.4053 21.2 94.4053 21.4V21.49C94.4053 21.83 94.1653 22 93.6853 22H88.0453C87.6053 22 87.3853 21.83 87.3853 21.49V21.4C87.3853 21.2 87.5753 20.89 87.9553 20.47C88.3353 20.03 88.5253 19.58 88.5253 19.12V3.58C88.5253 3.12 88.3353 2.68 87.9553 2.26C87.5753 1.82 87.3853 1.5 87.3853 1.3V1.18C87.3853 0.859999 87.6053 0.699999 88.0453 0.699999H95.4553C98.2353 0.699999 100.435 1.27 102.055 2.41C103.695 3.55 104.525 5.22 104.545 7.42C104.545 8.64 104.185 9.77 103.465 10.81C102.765 11.83 101.755 12.62 100.435 13.18L104.365 19.12ZM94.7953 12.13H96.0853C97.2253 12.13 98.1353 11.78 98.8153 11.08C99.5153 10.36 99.8653 9.31 99.8653 7.93C99.8653 6.29 99.3853 4.98 98.4253 4C97.4853 3.02 96.3953 2.53 95.1553 2.53H94.1353C93.4553 2.53 93.1153 2.98 93.1153 3.88V10.12C93.1153 10.84 93.2453 11.36 93.5053 11.68C93.7853 11.98 94.2153 12.13 94.7953 12.13ZM110.893 21.49V21.4C110.893 21.2 111.083 20.89 111.463 20.47C111.843 20.05 112.033 19.6 112.033 19.12V3.58C112.033 3.12 111.843 2.68 111.463 2.26C111.083 1.82 110.893 1.5 110.893 1.3V1.18C110.893 0.859999 111.113 0.699999 111.553 0.699999H117.163C117.603 0.699999 117.823 0.859999 117.823 1.18V1.3C117.823 1.5 117.613 1.82 117.193 2.26C116.773 2.68 116.563 3.12 116.563 3.58V19.12C116.563 19.6 116.773 20.05 117.193 20.47C117.613 20.89 117.823 21.2 117.823 21.4V21.49C117.823 21.83 117.603 22 117.163 22H111.553C111.113 22 110.893 21.83 110.893 21.49ZM133.072 22.3C130.292 22.3 127.892 21.17 125.872 18.91C123.872 16.63 122.872 14.02 122.872 11.08C122.872 7.98 123.792 5.43 125.632 3.43C127.492 1.43 129.892 0.429999 132.832 0.429999C135.132 0.429999 137.132 1.02 138.832 2.2C140.532 3.36 141.382 4.66 141.382 6.1C141.382 6.7 141.192 7.19 140.812 7.57C140.432 7.93 139.912 8.11 139.252 8.11C138.652 8.11 138.122 7.91 137.662 7.51C137.202 7.11 136.802 6.63 136.462 6.07C136.122 5.49 135.762 4.91 135.382 4.33C135.022 3.75 134.542 3.26 133.942 2.86C133.342 2.46 132.652 2.26 131.872 2.26C130.612 2.26 129.532 2.83 128.632 3.97C127.732 5.09 127.282 6.56 127.282 8.38C127.282 11.24 127.992 13.6 129.412 15.46C130.852 17.32 132.522 18.25 134.422 18.25C136.782 18.25 138.672 16.99 140.092 14.47C140.332 14.13 140.642 14.02 141.022 14.14C141.402 14.24 141.572 14.51 141.532 14.95C141.352 17.01 140.532 18.75 139.072 20.17C137.612 21.59 135.612 22.3 133.072 22.3ZM156.798 22.3C153.798 22.3 151.278 21.25 149.238 19.15C147.198 17.05 146.178 14.47 146.178 11.41C146.178 8.17 147.148 5.53 149.088 3.49C151.048 1.43 153.588 0.399999 156.708 0.399999C159.708 0.399999 162.208 1.47 164.208 3.61C166.208 5.73 167.208 8.35 167.208 11.47C167.208 14.61 166.208 17.2 164.208 19.24C162.228 21.28 159.758 22.3 156.798 22.3ZM158.058 20.35C159.438 20.35 160.548 19.84 161.388 18.82C162.228 17.8 162.648 16.5 162.648 14.92C162.648 12.96 162.318 11.02 161.658 9.1C160.998 7.16 160.078 5.55 158.898 4.27C157.718 2.99 156.448 2.35 155.088 2.35C153.708 2.35 152.608 2.85 151.788 3.85C150.988 4.85 150.588 6.18 150.588 7.84C150.588 9.88 150.908 11.86 151.548 13.78C152.208 15.7 153.118 17.28 154.278 18.52C155.438 19.74 156.698 20.35 158.058 20.35ZM189.432 19.12C189.692 19.52 190.002 19.87 190.362 20.17C190.742 20.45 191.042 20.68 191.262 20.86C191.482 21.02 191.592 21.2 191.592 21.4V21.49C191.592 21.83 191.362 22 190.902 22H184.632C184.192 22 183.972 21.83 183.972 21.49V21.4C183.972 21.22 184.082 21.02 184.302 20.8C184.542 20.56 184.702 20.35 184.782 20.17C184.882 19.97 184.832 19.62 184.632 19.12L181.482 13.9L178.182 13.96V19.12C178.182 19.58 178.392 20.03 178.812 20.47C179.252 20.89 179.472 21.2 179.472 21.4V21.49C179.472 21.83 179.232 22 178.752 22H173.112C172.672 22 172.452 21.83 172.452 21.49V21.4C172.452 21.2 172.642 20.89 173.022 20.47C173.402 20.03 173.592 19.58 173.592 19.12V3.58C173.592 3.12 173.402 2.68 173.022 2.26C172.642 1.82 172.452 1.5 172.452 1.3V1.18C172.452 0.859999 172.672 0.699999 173.112 0.699999H180.522C183.302 0.699999 185.502 1.27 187.122 2.41C188.762 3.55 189.592 5.22 189.612 7.42C189.612 8.64 189.252 9.77 188.532 10.81C187.832 11.83 186.822 12.62 185.502 13.18L189.432 19.12ZM179.862 12.13H181.152C182.292 12.13 183.202 11.78 183.882 11.08C184.582 10.36 184.932 9.31 184.932 7.93C184.932 6.29 184.452 4.98 183.492 4C182.552 3.02 181.462 2.53 180.222 2.53H179.202C178.522 2.53 178.182 2.98 178.182 3.88V10.12C178.182 10.84 178.312 11.36 178.572 11.68C178.852 11.98 179.282 12.13 179.862 12.13ZM196.62 22C196.16 22 195.93 21.83 195.93 21.49V21.4C195.93 21.2 196.12 20.89 196.5 20.47C196.9 20.03 197.1 19.58 197.1 19.12V3.58C197.1 3.12 196.9 2.68 196.5 2.26C196.12 1.82 195.93 1.5 195.93 1.3V1.18C195.93 0.859999 196.16 0.699999 196.62 0.699999H203.46C207.38 0.699999 210.52 1.7 212.88 3.7C215.24 5.7 216.42 8.26 216.42 11.38C216.42 14.58 215.35 17.15 213.21 19.09C211.09 21.03 208.31 22 204.87 22H196.62ZM203.79 20.17H205.32C207.2 20.17 208.73 19.56 209.91 18.34C211.11 17.12 211.71 15.44 211.71 13.3C211.71 10.32 210.9 7.78 209.28 5.68C207.68 3.58 205.7 2.53 203.34 2.53H202.77C201.97 2.53 201.57 2.95 201.57 3.79V17.59C201.57 18.41 201.76 19.05 202.14 19.51C202.54 19.95 203.09 20.17 203.79 20.17ZM221.606 21.49V21.4C221.606 21.2 221.796 20.89 222.176 20.47C222.556 20.05 222.746 19.6 222.746 19.12V3.58C222.746 3.12 222.556 2.68 222.176 2.26C221.796 1.82 221.606 1.5 221.606 1.3V1.18C221.606 0.859999 221.826 0.699999 222.266 0.699999H227.876C228.316 0.699999 228.536 0.859999 228.536 1.18V1.3C228.536 1.5 228.326 1.82 227.906 2.26C227.486 2.68 227.276 3.12 227.276 3.58V19.12C227.276 19.6 227.486 20.05 227.906 20.47C228.326 20.89 228.536 21.2 228.536 21.4V21.49C228.536 21.83 228.316 22 227.876 22H222.266C221.826 22 221.606 21.83 221.606 21.49ZM252.271 19.12C252.471 19.6 252.791 20.04 253.231 20.44C253.691 20.84 253.921 21.16 253.921 21.4V21.49C253.921 21.83 253.701 22 253.261 22H246.691C246.251 22 246.031 21.83 246.031 21.49V21.4C246.031 21.2 246.161 21 246.421 20.8C246.701 20.58 246.941 20.34 247.141 20.08C247.341 19.8 247.371 19.48 247.231 19.12L246.331 16.72H237.961L237.091 19.12C236.951 19.48 236.981 19.8 237.181 20.08C237.381 20.34 237.611 20.58 237.871 20.8C238.151 21 238.291 21.2 238.291 21.4V21.49C238.291 21.83 238.061 22 237.601 22H233.671C233.231 22 233.011 21.83 233.011 21.49V21.4C233.011 21.16 233.231 20.85 233.671 20.47C234.111 20.07 234.431 19.62 234.631 19.12L240.601 3.79C240.761 3.37 240.621 2.88 240.181 2.32C239.761 1.76 239.551 1.42 239.551 1.3V1.18C239.551 0.859999 239.751 0.699999 240.151 0.699999H243.271C244.111 0.699999 244.721 1.13 245.101 1.99L252.271 19.12ZM238.681 14.77H245.611L242.101 5.44L238.681 14.77Z" fill="black"/>
</svg>
