<svg width="14" height="9" viewBox="0 0 14 9" fill="none" xmlns="http://www.w3.org/2000/svg">
<path fill-rule="evenodd" clip-rule="evenodd" d="M0 4.37309C0 4.24424 0.049386 4.12067 0.137294 4.02956C0.225201 3.93844 0.34443 3.88726 0.46875 3.88726H11.5247L8.57438 0.830413C8.48636 0.739187 8.43691 0.615457 8.43691 0.486444C8.43691 0.357431 8.48636 0.233702 8.57438 0.142476C8.66239 0.0512501 8.78177 3.03965e-09 8.90625 0C9.03073 -3.03965e-09 9.15011 0.0512501 9.23813 0.142476L12.9881 4.02912C13.0318 4.07425 13.0664 4.12786 13.09 4.18689C13.1137 4.24591 13.1258 4.30919 13.1258 4.37309C13.1258 4.43699 13.1137 4.50027 13.09 4.55929C13.0664 4.61832 13.0318 4.67193 12.9881 4.71706L9.23813 8.6037C9.15011 8.69493 9.03073 8.74618 8.90625 8.74618C8.78177 8.74618 8.66239 8.69493 8.57438 8.6037C8.48636 8.51248 8.43691 8.38875 8.43691 8.25973C8.43691 8.13072 8.48636 8.00699 8.57438 7.91577L11.5247 4.85892H0.46875C0.34443 4.85892 0.225201 4.80773 0.137294 4.71662C0.049386 4.62551 0 4.50194 0 4.37309Z" fill="white"/>
</svg>
