<svg width="28" height="22" viewBox="0 0 28 22" fill="none" xmlns="http://www.w3.org/2000/svg">
<path d="M11.9518 20.1577C11.9518 20.474 11.842 20.7831 11.6363 21.0461C11.4306 21.3091 11.1382 21.5141 10.7961 21.6352C10.4539 21.7562 10.0775 21.7879 9.71432 21.7262C9.35113 21.6645 9.01753 21.5121 8.75569 21.2885C8.49385 21.0648 8.31553 20.7799 8.24329 20.4696C8.17105 20.1594 8.20812 19.8379 8.34983 19.5457C8.49154 19.2534 8.73151 19.0037 9.0394 18.8279C9.34729 18.6522 9.70928 18.5584 10.0796 18.5584C10.5761 18.5584 11.0523 18.7269 11.4035 19.0268C11.7546 19.3267 11.9518 19.7335 11.9518 20.1577ZM22.2493 18.5584C21.879 18.5584 21.517 18.6522 21.2091 18.8279C20.9012 19.0037 20.6612 19.2534 20.5195 19.5457C20.3778 19.8379 20.3408 20.1594 20.413 20.4696C20.4852 20.7799 20.6636 21.0648 20.9254 21.2885C21.1872 21.5121 21.5208 21.6645 21.884 21.7262C22.2472 21.7879 22.6237 21.7562 22.9658 21.6352C23.3079 21.5141 23.6003 21.3091 23.806 21.0461C24.0117 20.7831 24.1215 20.474 24.1215 20.1577C24.1215 19.7335 23.9243 19.3267 23.5732 19.0268C23.2221 18.7269 22.7458 18.5584 22.2493 18.5584ZM27.5618 5.98445L24.4726 15.22C24.303 15.7207 23.9478 16.1608 23.4604 16.4744C22.973 16.788 22.3797 16.9581 21.7695 16.9592H10.5593C9.94916 16.9581 9.35584 16.788 8.86846 16.4744C8.38107 16.1608 8.0259 15.7207 7.85626 15.22L4.76703 5.99445V5.97446L3.62027 2.56609H1.65439C1.40612 2.56609 1.16801 2.48185 0.992448 2.33189C0.81689 2.18193 0.718262 1.97855 0.718262 1.76647C0.718262 1.5544 0.81689 1.35102 0.992448 1.20106C1.16801 1.0511 1.40612 0.966858 1.65439 0.966858H3.62027C4.0269 0.968117 4.42214 1.08172 4.74694 1.2907C5.07174 1.49968 5.30867 1.79281 5.42232 2.1263L6.37016 4.96494H26.6608C26.8058 4.96481 26.9489 4.99345 27.0787 5.04861C27.2085 5.10377 27.3216 5.18393 27.4089 5.28279C27.4963 5.38164 27.5556 5.49647 27.5821 5.61824C27.6087 5.74 27.6017 5.86537 27.5618 5.98445V5.98445ZM25.4204 6.56417H6.90843L9.65832 14.7802C9.71429 14.9474 9.83253 15.0944 9.99512 15.199C10.1577 15.3036 10.3558 15.3601 10.5593 15.36H21.7695C21.9731 15.3601 22.1711 15.3036 22.3337 15.199C22.4963 15.0944 22.6146 14.9474 22.6705 14.7802L25.4204 6.56417Z" fill="white"/>
</svg>
