<svg width="104" height="104" viewBox="0 0 104 104" fill="none" xmlns="http://www.w3.org/2000/svg">
<path d="M52.3377 43.8754L54.8715 45.8217L50.3839 50.4914L56.8819 50.3398L56.5317 53.6334L50.2516 52.2368L53.4706 57.9175L50.5128 59.2029L48.5164 52.9909L45.2699 58.5746L42.5664 56.5613L47.054 51.8917L40.6126 52.0656L40.9234 48.7892L47.3389 50.1738L44.1028 44.4536L47.1 43.151L49.0347 49.4368L52.3377 43.8754Z" fill="#e98e44"/>
<path d="M87.8495 36.0839C84.2214 27.7358 77.8109 20.9039 69.7103 16.7523C61.6097 12.6007 52.3202 11.3864 43.4247 13.3161C34.5291 15.2459 26.5778 20.2004 20.9257 27.3354C15.2736 34.4704 12.2703 43.3445 12.4275 52.4456C12.5847 61.5467 15.8928 70.3118 21.788 77.2473C27.6833 84.1828 35.8009 88.8597 44.7579 90.481C53.7148 92.1023 62.9568 90.5678 70.9091 86.1389C78.8615 81.7099 85.0321 74.6607 88.3697 66.1922" stroke="#131313" stroke-opacity="0.61"/>
<path d="M87.8495 36.0839C84.2214 27.7358 77.8109 20.9039 69.7103 16.7523C61.6097 12.6007 52.3202 11.3864 43.4247 13.3161C34.5291 15.2459 26.5778 20.2004 20.9257 27.3354C15.2736 34.4704 12.2703 43.3445 12.4275 52.4456C12.5847 61.5467 15.8928 70.3118 21.788 77.2473C27.6833 84.1828 35.8009 88.8597 44.7579 90.481C53.7148 92.1023 62.9568 90.5678 70.9091 86.1389C78.8615 81.7099 85.0321 74.6607 88.3697 66.1922" stroke="white" stroke-opacity="1" stroke-width="2px"/>
</svg>
