<svg width="130" height="130" viewBox="0 0 130 130" fill="none" xmlns="http://www.w3.org/2000/svg">
<path d="M62.2836 121.951C60.916 121.919 59.7404 121.633 58.7568 121.094C57.7609 120.566 57.0102 119.822 56.5047 118.862C55.9871 117.902 55.7435 116.78 55.7737 115.496C55.8039 114.212 56.1001 113.103 56.6623 112.168C57.2121 111.245 57.9969 110.543 59.0165 110.063C60.0238 109.594 61.2112 109.376 62.5788 109.408L66.4838 109.5L66.1885 122.043L62.2836 121.951ZM62.5471 110.758C60.9275 110.72 59.6818 111.117 58.81 111.948C57.9379 112.792 57.4837 113.988 57.4472 115.535C57.4105 117.095 57.8137 118.323 58.6569 119.219C59.488 120.115 60.7074 120.581 62.3149 120.619L64.5823 120.673L64.8144 110.811L62.5471 110.758Z" fill="#E5E5E5"/>
<path d="M52.3147 119.246L53.2501 115.158L48.7933 114.138L49.0944 112.822L53.5512 113.842L54.5147 109.631L49.5315 108.491L49.8326 107.175L56.4126 108.68L53.6104 120.928L47.0304 119.422L47.3315 118.106L52.3147 119.246ZM48.1829 122.456L52.378 121.31L52.105 122.503L47.8657 123.842L48.1829 122.456Z" fill="#E5E5E5"/>
<path d="M46.7768 112.546C46.2706 113.66 45.5653 114.546 44.6607 115.202C43.7512 115.87 42.7508 116.259 41.6594 116.37C40.557 116.475 39.476 116.288 38.4161 115.806C37.1706 115.241 36.2199 114.446 35.5641 113.424C34.9083 112.401 34.618 111.241 34.6931 109.944L36.4795 110.755C36.4837 111.588 36.7019 112.326 37.1341 112.97C37.5554 113.61 38.1812 114.118 39.0116 114.495C39.8092 114.857 40.6092 114.997 41.4116 114.913C42.2141 114.829 42.9519 114.525 43.625 114.001C44.2932 113.487 44.8358 112.771 45.2526 111.853C45.6645 110.947 45.8464 110.067 45.7985 109.215C45.7456 108.374 45.4866 107.624 45.0216 106.964C44.5567 106.305 43.9254 105.794 43.1278 105.432C42.2974 105.055 41.5053 104.913 40.7516 105.005C39.9819 105.104 39.2824 105.425 38.6529 105.97L36.8665 105.158C37.7889 104.259 38.8508 103.72 40.0525 103.541C41.2491 103.373 42.4702 103.572 43.7158 104.137C44.7756 104.619 45.6309 105.304 46.2817 106.192C46.9166 107.087 47.2843 108.091 47.385 109.204C47.4857 110.317 47.2829 111.431 46.7768 112.546Z" fill="#E5E5E5"/>
<path d="M35.5395 98.4818C36.4672 99.1849 37.1505 100.042 37.5894 101.052C38.0211 102.072 38.1681 103.139 38.0305 104.254C37.8761 105.372 37.4292 106.419 36.6899 107.394C35.9505 108.37 35.0674 109.078 34.0403 109.519C32.9965 109.963 31.9289 110.11 30.8377 109.96C29.7392 109.82 28.7261 109.399 27.7984 108.696C26.8612 107.985 26.1767 107.12 25.745 106.101C25.3061 105.09 25.1602 104.031 25.3074 102.923C25.4546 101.815 25.9015 100.768 26.6481 99.7834C27.3946 98.7984 28.2814 98.0852 29.3085 97.644C30.3355 97.2028 31.3983 97.0521 32.4968 97.1921C33.588 97.3416 34.6023 97.7715 35.5395 98.4818ZM34.6806 99.6151C33.9825 99.086 33.2328 98.7738 32.4317 98.6786C31.621 98.5761 30.8295 98.7065 30.0573 99.0698C29.2755 99.4259 28.5838 100.001 27.9822 100.795C27.3733 101.598 27.0068 102.419 26.8826 103.259C26.7415 104.1 26.8251 104.894 27.1334 105.64C27.4416 106.385 27.9496 107.026 28.6573 107.562C29.365 108.099 30.1194 108.415 30.9206 108.51C31.7217 108.605 32.5132 108.475 33.295 108.119C34.06 107.765 34.7469 107.186 35.3557 106.383C35.9573 105.589 36.3287 104.771 36.4697 103.93C36.6012 103.081 36.5128 102.284 36.2045 101.538C35.8867 100.785 35.3788 100.144 34.6806 99.6151Z" fill="#E5E5E5"/>
<path d="M21.7908 102.503L27.8263 97.3471C28.6748 96.6222 29.129 95.8791 29.1888 95.1178C29.2409 94.3473 28.9512 93.5926 28.3198 92.8535C27.6963 92.1236 27.0038 91.7288 26.2425 91.6689C25.4734 91.6 24.6646 91.928 23.816 92.6528L17.7806 97.8089L16.7166 96.5635L22.7384 91.4191C23.5322 90.741 24.3392 90.3278 25.1594 90.1794C25.9706 90.0389 26.7423 90.1293 27.4745 90.4507C28.199 90.763 28.8496 91.2567 29.4264 91.9319C30.0032 92.6071 30.3931 93.3314 30.5962 94.1049C30.7915 94.8692 30.7564 95.641 30.4909 96.4202C30.2085 97.1981 29.6704 97.9261 28.8766 98.6042L22.8548 103.749L21.7908 102.503Z" fill="#E5E5E5"/>
<path d="M10.7237 85.0891L24.0059 83.2466L24.9098 84.9065L16.1555 95.064L15.3205 93.5306L22.936 84.895L11.5501 86.6066L10.7237 85.0891Z" fill="#E5E5E5"/>
<path d="M20.7402 73.4229L16.7104 77.7824L17.2904 79.6756L22.1954 78.173L22.6751 79.7391L10.6794 83.4139L9.49313 79.5415C9.21546 78.6351 9.13662 77.8246 9.25661 77.1101C9.37309 76.3842 9.64777 75.7855 10.0807 75.314C10.5136 74.8425 11.0685 74.5031 11.7454 74.2957C12.5715 74.0427 13.3739 74.0604 14.1526 74.349C14.9278 74.6261 15.5645 75.2092 16.0627 76.0982L20.1656 71.5469L20.7402 73.4229ZM16.034 80.0604L15.3275 77.7542C15.0674 76.9052 14.6658 76.3316 14.1227 76.0336C13.5681 75.7392 12.9409 75.6991 12.241 75.9135C11.5296 76.1314 11.0439 76.5124 10.7839 77.0564C10.5203 77.589 10.5203 78.2855 10.7839 79.1461L11.4904 81.4523L16.034 80.0604Z" fill="#E5E5E5"/>
<path d="M7.92335 71.0959L20.3509 69.3758L20.5755 70.9983L8.14793 72.7184L7.92335 71.0959Z" fill="#E5E5E5"/>
<path d="M20.2524 59.1426L15.0574 62.0161L15.0135 63.9956L20.1422 64.1094L20.1059 65.747L7.56299 65.4687L7.65283 61.4197C7.67386 60.4719 7.85352 59.6777 8.19182 59.037C8.53038 58.3844 8.97919 57.9022 9.53824 57.5905C10.0973 57.2789 10.7307 57.1309 11.4386 57.1466C12.3023 57.1658 13.0586 57.4346 13.7072 57.9531C14.3561 58.4596 14.7775 59.2132 14.9714 60.2137L20.296 57.1811L20.2524 59.1426ZM13.6998 63.9664L13.7533 61.555C13.773 60.6672 13.5719 59.9966 13.1498 59.5431C12.7158 59.0894 12.1328 58.8544 11.401 58.8382C10.6572 58.8217 10.0764 59.0308 9.65867 59.4657C9.24119 59.8885 9.02247 60.5498 9.0025 61.4496L8.94899 63.861L13.6998 63.9664Z" fill="#E5E5E5"/>
<path d="M21.0577 56.2943C21.0012 56.6012 20.8473 56.8413 20.5957 57.0147C20.3442 57.188 20.065 57.2465 19.7582 57.19C19.4513 57.1336 19.2112 56.9796 19.0379 56.7281C18.8645 56.4766 18.8061 56.1974 18.8625 55.8906C18.9168 55.5955 19.0686 55.3672 19.3179 55.2056C19.5694 55.0323 19.8486 54.9738 20.1555 55.0303C20.4623 55.0867 20.7024 55.2407 20.8758 55.4922C21.0513 55.7319 21.1119 55.9993 21.0577 56.2943Z" fill="#E5E5E5"/>
<path d="M18.4439 31.2168C19.2225 30.092 20.1074 29.267 21.0986 28.7418C22.0867 28.1999 23.1208 27.9817 24.2008 28.0871C25.2876 28.1827 26.3588 28.596 27.4146 29.3268C28.4703 30.0576 29.2342 30.9148 29.7063 31.8984C30.1753 32.8653 30.3302 33.9066 30.1708 35.0222C30.0084 36.1212 29.5379 37.2331 28.7593 38.3578L26.536 41.5694L16.2206 34.4283L18.4439 31.2168ZM27.6493 37.5894C28.5714 36.2575 28.9246 34.9987 28.7091 33.8133C28.4836 32.621 27.7345 31.5843 26.4617 30.7032C25.1791 29.8152 23.9318 29.4772 22.7197 29.6889C21.5145 29.8908 20.4543 30.6529 19.539 31.975L18.2481 33.8397L26.3584 39.4542L27.6493 37.5894Z" fill="#E5E5E5"/>
<path d="M26.185 24.3751L29.0861 27.4038L32.3878 24.2412L33.3216 25.2161L30.0199 28.3787L33.0082 31.4984L36.6999 27.9622L37.6337 28.9371L32.7592 33.6064L24.0682 24.5332L28.9427 19.864L29.8766 20.8389L26.185 24.3751ZM25.7752 19.1593L24.4259 23.2933L23.5792 22.4094L24.7915 18.1324L25.7752 19.1593Z" fill="#E5E5E5"/>
<path d="M34.8246 23.4319C34.1718 22.3964 33.8197 21.3204 33.7683 20.2038C33.7105 19.077 33.9354 18.0274 34.4429 17.0549C34.9606 16.0759 35.7118 15.2761 36.6965 14.6553C37.8537 13.9258 39.0397 13.5682 40.2545 13.5825C41.4694 13.5968 42.5979 13.9919 43.6402 14.7675L41.9804 15.8139C41.2829 15.3599 40.5462 15.1364 39.7703 15.1432C39.0045 15.1437 38.2359 15.3871 37.4644 15.8735C36.7234 16.3406 36.1673 16.9324 35.7961 17.6487C35.4249 18.365 35.2734 19.1485 35.3416 19.9992C35.4034 20.8398 35.7031 21.6864 36.2407 22.5391C36.7718 23.3816 37.4065 24.0171 38.1447 24.4454C38.8764 24.8636 39.6455 25.0597 40.4518 25.0336C41.2582 25.0076 42.0319 24.761 42.7729 24.2938C43.5444 23.8074 44.0986 23.224 44.4356 22.5434C44.7763 21.8463 44.8923 21.0852 44.7835 20.26L46.4432 19.2137C46.6873 20.4784 46.5539 21.6619 46.043 22.7642C45.5257 23.8563 44.6885 24.7671 43.5313 25.4967C42.5466 26.1175 41.5043 26.4554 40.4042 26.5106C39.3079 26.5492 38.267 26.3046 37.2817 25.7768C36.2964 25.2489 35.4774 24.4673 34.8246 23.4319Z" fill="#E5E5E5"/>
<path d="M52.7502 21.7756C51.6529 22.1641 50.5617 22.264 49.4765 22.0754C48.3873 21.8754 47.4147 21.4115 46.5586 20.6834C45.7099 19.9401 45.0812 18.9915 44.6727 17.8377C44.2642 16.6838 44.1579 15.5567 44.3539 14.4562C44.5571 13.3404 45.0211 12.3678 45.7459 11.5383C46.4666 10.6976 47.3756 10.083 48.4728 9.69447C49.5814 9.30198 50.6803 9.20571 51.7695 9.40566C52.8547 9.5943 53.8196 10.0546 54.6644 10.7867C55.5091 11.5187 56.1378 12.4673 56.5503 13.6324C56.9628 14.7976 57.0711 15.9304 56.8751 17.0309C56.6792 18.1314 56.2208 19.102 55.5001 19.9427C54.7754 20.7722 53.8587 21.3831 52.7502 21.7756ZM52.2756 20.4352C53.1013 20.1428 53.7742 19.6882 54.2941 19.0713C54.8254 18.4504 55.1515 17.7175 55.2724 16.8727C55.4047 16.0239 55.3047 15.13 54.9723 14.1911C54.6358 13.2409 54.1512 12.4832 53.5183 11.9181C52.8927 11.3376 52.1837 10.9712 51.3915 10.8189C50.5992 10.6665 49.7845 10.7386 48.9474 11.0349C48.1103 11.3313 47.4318 11.7879 46.9119 12.4048C46.392 13.0217 46.0659 13.7546 45.9336 14.6034C45.8086 15.4369 45.9143 16.3288 46.2508 17.279C46.5832 18.2179 47.0622 18.9776 47.6878 19.558C48.3247 20.1345 49.0393 20.4989 49.8316 20.6512C50.6351 20.7996 51.4498 20.7275 52.2756 20.4352Z" fill="#E5E5E5"/>
<path d="M56.9487 8.07898L57.9384 15.955C58.0775 17.0623 58.4486 17.8502 59.0517 18.3187C59.6668 18.7856 60.4565 18.9585 61.4209 18.8373C62.3734 18.7177 63.0839 18.3563 63.5523 17.7532C64.0327 17.1485 64.2033 16.2926 64.0642 15.1853L63.0745 7.30924L64.6997 7.10502L65.6872 14.9632C65.8173 15.9991 65.7189 16.9004 65.392 17.6671C65.0635 18.422 64.5638 19.0169 63.8928 19.452C63.2337 19.8855 62.4636 20.1576 61.5826 20.2684C60.7015 20.3791 59.8821 20.3067 59.1243 20.0511C58.3784 19.7941 57.753 19.3406 57.248 18.6905C56.7534 18.0269 56.4411 17.1773 56.3109 16.1414L55.3235 8.28319L56.9487 8.07898Z" fill="#E5E5E5"/>
<path d="M77.5791 8.4065L71.8172 20.5149L69.9338 20.3576L66.2605 7.46109L68.0004 7.60643L71.0283 18.715L75.8571 8.26267L77.5791 8.4065Z" fill="#E5E5E5"/>
<path d="M81.8195 23.1867L80.3928 17.424L78.4925 16.8678L77.0515 21.7913L75.4795 21.3312L79.0035 9.29028L82.8905 10.4279C83.8003 10.6942 84.5207 11.0738 85.0516 11.5668C85.594 12.0631 85.9432 12.6217 86.0991 13.2425C86.255 13.8633 86.2335 14.5134 86.0346 15.1929C85.7919 16.0221 85.336 16.6826 84.6669 17.1745C84.0094 17.6697 83.1723 17.8811 82.1557 17.8087L83.7025 23.7379L81.8195 23.1867ZM78.8616 15.6067L81.1765 16.2842C82.0287 16.5337 82.7286 16.5134 83.2761 16.2235C83.8269 15.9221 84.2051 15.4202 84.4107 14.7176C84.6197 14.0036 84.5684 13.3884 84.2569 12.8721C83.9569 12.3592 83.375 11.9763 82.5113 11.7235L80.1964 11.046L78.8616 15.6067Z" fill="#E5E5E5"/>
<path d="M90.8085 13.7581L85.4143 25.0852L83.9354 24.3809L89.3297 13.0538L90.8085 13.7581Z" fill="#E5E5E5"/>
<path d="M94.016 30.629L94.4712 24.7097L92.8417 23.5849L89.9274 27.8068L88.5794 26.8763L95.7065 16.5512L99.0395 18.8519C99.8197 19.3905 100.384 19.9771 100.734 20.6119C101.093 21.2534 101.249 21.8934 101.202 22.5317C101.155 23.1701 100.93 23.7806 100.528 24.3632C100.037 25.0743 99.3971 25.5582 98.6074 25.8151C97.8276 26.0788 96.9665 26.0166 96.0241 25.6285L95.6307 31.7435L94.016 30.629ZM93.5881 22.5035L95.5731 23.8737C96.3039 24.3782 96.9748 24.5787 97.5856 24.4754C98.2032 24.3623 98.7199 24.0045 99.1358 23.4021C99.5584 22.7898 99.7029 22.1896 99.5693 21.6016C99.4455 21.0204 99.0133 20.4742 98.2726 19.9629L96.2876 18.5927L93.5881 22.5035Z" fill="#E5E5E5"/>
<path d="M95.9533 32.8662C95.728 32.6504 95.6121 32.3898 95.6055 32.0844C95.5989 31.779 95.7036 31.5137 95.9194 31.2883C96.1352 31.063 96.3958 30.9471 96.7012 30.9405C97.0066 30.934 97.272 31.0386 97.4973 31.2544C97.7139 31.4619 97.8212 31.7142 97.8191 32.0113C97.8257 32.3167 97.721 32.5821 97.5052 32.8074C97.2894 33.0327 97.0288 33.1486 96.7234 33.1552C96.4267 33.1701 96.17 33.0738 95.9533 32.8662Z" fill="#E5E5E5"/>
<path d="M118.339 44.4686C118.851 45.7373 119.053 46.93 118.947 48.0467C118.857 49.1701 118.471 50.1539 117.789 50.9981C117.112 51.8534 116.178 52.5212 114.987 53.0014C113.796 53.4816 112.66 53.6485 111.579 53.5023C110.513 53.3626 109.558 52.9196 108.714 52.1732C107.885 51.4335 107.215 50.4293 106.703 49.1605L105.243 45.538L116.878 40.846L118.339 44.4686ZM107.955 48.6557C108.561 50.1581 109.419 51.1451 110.527 51.6167C111.647 52.0837 112.925 52.0278 114.361 51.4489C115.808 50.8655 116.776 50.0093 117.265 48.8804C117.759 47.7626 117.705 46.458 117.104 44.9667L116.255 42.8633L107.107 46.5522L107.955 48.6557Z" fill="#E5E5E5"/>
<path d="M119.8 54.6949L115.675 55.4536L116.502 59.9502L115.174 60.1944L114.347 55.6978L110.098 56.4793L111.023 61.507L109.695 61.7512L108.474 55.1126L120.831 52.8397L122.052 59.4783L120.724 59.7225L119.8 54.6949ZM124.382 57.2196L121.67 53.8201L122.874 53.5986L125.78 56.9623L124.382 57.2196Z" fill="#E5E5E5"/>
<path d="M115.838 62.4319C117.062 62.4558 118.154 62.7531 119.115 63.3239C120.088 63.895 120.842 64.6598 121.375 65.6184C121.908 66.589 122.164 67.6561 122.141 68.8199C122.114 70.1876 121.761 71.375 121.081 72.3819C120.402 73.3889 119.451 74.1145 118.23 74.5588L118.269 72.5972C119.031 72.264 119.623 71.7714 120.044 71.1195C120.464 70.4796 120.683 69.7037 120.701 68.7919C120.718 67.916 120.53 67.1262 120.135 66.4224C119.741 65.7186 119.17 65.1613 118.421 64.7507C117.685 64.3403 116.813 64.1252 115.806 64.1056C114.81 64.0862 113.93 64.2671 113.166 64.6483C112.415 65.0297 111.828 65.5644 111.407 66.2523C110.985 66.9402 110.766 67.7221 110.749 68.598C110.731 69.5098 110.914 70.2935 111.297 70.9491C111.692 71.6169 112.264 72.1321 113.014 72.4948L112.975 74.4564C111.785 73.9651 110.869 73.2032 110.229 72.1705C109.601 71.1381 109.301 69.938 109.327 68.5702C109.35 67.4065 109.641 66.3499 110.199 65.4006C110.77 64.4636 111.546 63.7286 112.529 63.1956C113.511 62.6626 114.614 62.4081 115.838 62.4319Z" fill="#E5E5E5"/>
<path d="M107.368 78.3167C107.647 77.1865 108.163 76.22 108.917 75.4172C109.683 74.6172 110.605 74.0598 111.684 73.7448C112.772 73.4444 113.91 73.4407 115.098 73.7336C116.286 74.0266 117.286 74.5574 118.098 75.326C118.918 76.1091 119.476 77.0314 119.77 78.0927C120.077 79.1569 120.09 80.2541 119.812 81.3843C119.53 82.5261 119.007 83.497 118.241 84.297C117.487 85.0998 116.572 85.6529 115.496 85.9562C114.42 86.2595 113.282 86.2632 112.082 85.9674C110.882 85.6715 109.876 85.1393 109.065 84.3707C108.253 83.6021 107.694 82.6857 107.388 81.6214C107.093 80.5601 107.087 79.4585 107.368 78.3167ZM108.749 78.6571C108.539 79.5076 108.549 80.3196 108.779 81.093C109.006 81.8781 109.438 82.5533 110.078 83.1188C110.714 83.6959 111.516 84.1036 112.483 84.342C113.462 84.5833 114.361 84.5949 115.181 84.3768C116.01 84.1733 116.705 83.7825 117.268 83.2044C117.831 82.6263 118.219 81.9061 118.431 81.0439C118.644 80.1817 118.635 79.3639 118.406 78.5905C118.176 77.8171 117.743 77.1418 117.107 76.5647C116.479 76.0022 115.676 75.6002 114.697 75.359C113.73 75.1206 112.832 75.1031 112.004 75.3067C111.172 75.5219 110.475 75.9185 109.912 76.4966C109.346 77.0864 108.959 77.8065 108.749 78.6571Z" fill="#E5E5E5"/>
<path d="M116.502 89.3519L109.379 85.8493C108.377 85.3569 107.515 85.2338 106.792 85.4801C106.064 85.7372 105.486 86.3019 105.057 87.1741C104.633 88.0356 104.545 88.8278 104.791 89.5507C105.032 90.2843 105.653 90.8973 106.655 91.3898L113.778 94.8923L113.055 96.3623L105.948 92.8676C105.011 92.407 104.312 91.8293 103.852 91.1347C103.402 90.4454 103.179 89.701 103.185 88.9013C103.185 88.1124 103.381 87.3195 103.773 86.5226C104.164 85.7257 104.675 85.081 105.305 84.5884C105.93 84.1066 106.653 83.8335 107.473 83.769C108.299 83.7205 109.181 83.9266 110.118 84.3873L117.225 87.8819L116.502 89.3519Z" fill="#E5E5E5"/>
<path d="M104.889 106.406L97.9408 94.9374L99.1076 93.4505L111.9 97.4709L110.822 98.8445L99.8781 95.2677L105.955 105.047L104.889 106.406Z" fill="#E5E5E5"/>
<path d="M90.2117 101.824L95.81 103.799L97.3191 102.518L93.9983 98.6076L95.2467 97.5473L103.368 107.11L100.281 109.732C99.5588 110.345 98.8457 110.738 98.1421 110.911C97.4293 111.091 96.7708 111.076 96.1665 110.865C95.5622 110.654 95.0309 110.279 94.5726 109.739C94.0133 109.08 93.7121 108.336 93.669 107.507C93.6167 106.686 93.9003 105.87 94.5196 105.061L88.7162 103.094L90.2117 101.824ZM98.1697 103.519L96.3313 105.081C95.6545 105.655 95.2867 106.251 95.2279 106.868C95.1769 107.494 95.3883 108.086 95.8622 108.644C96.3438 109.211 96.8859 109.506 97.4884 109.53C98.0818 109.561 98.7215 109.285 99.4075 108.703L101.246 107.141L98.1697 103.519Z" fill="#E5E5E5"/>
<path d="M93.1468 114.516L86.6495 103.784L88.0507 102.935L94.5481 113.668L93.1468 114.516Z" fill="#E5E5E5"/>
<path d="M77.2892 107.923L81.9838 111.557L83.8192 110.814L81.8942 106.058L83.4125 105.444L88.1202 117.073L84.3661 118.593C83.4874 118.949 82.6869 119.098 81.9647 119.041C81.2313 118.988 80.6109 118.767 80.1035 118.377C79.596 117.986 79.2095 117.463 78.9438 116.807C78.6196 116.006 78.5673 115.205 78.7868 114.404C78.9952 113.608 79.5205 112.923 80.3626 112.349L75.4706 108.659L77.2892 107.923ZM84.3122 112.032L82.0765 112.937C81.2533 113.27 80.7171 113.72 80.4676 114.287C80.2226 114.865 80.2375 115.494 80.5122 116.172C80.7913 116.862 81.2133 117.312 81.7779 117.524C82.3314 117.74 83.0253 117.679 83.8596 117.341L86.0953 116.436L84.3122 112.032Z" fill="#E5E5E5"/>
<path d="M74.7749 108.499C75.0791 108.43 75.3605 108.476 75.6192 108.639C75.878 108.801 76.0421 109.034 76.1117 109.338C76.1813 109.642 76.1349 109.924 75.9725 110.183C75.8101 110.441 75.5769 110.606 75.2727 110.675C74.9803 110.742 74.7105 110.693 74.4635 110.528C74.2048 110.366 74.0406 110.132 73.971 109.828C73.9014 109.524 73.9478 109.243 74.1102 108.984C74.2609 108.728 74.4825 108.566 74.7749 108.499Z" fill="#E5E5E5"/>
</svg>
