<svg width="225" height="60" viewBox="0 0 225 60" fill="none" xmlns="http://www.w3.org/2000/svg">
<path d="M224.5 30C224.5 33.8719 221.55 37.6877 215.893 41.2544C210.26 44.8054 202.077 48.0217 191.921 50.7301C171.615 56.1449 143.535 59.5 112.5 59.5C81.4646 59.5 53.3849 56.1449 33.0793 50.7301C22.9229 48.0217 14.7397 44.8054 9.10747 41.2544C3.45023 37.6877 0.5 33.8719 0.5 30C0.5 26.1281 3.45023 22.3123 9.10747 18.7456C14.7397 15.1946 22.9229 11.9783 33.0793 9.26991C53.3849 3.85509 81.4646 0.5 112.5 0.5C143.535 0.5 171.615 3.85509 191.921 9.26991C202.077 11.9783 210.26 15.1946 215.893 18.7456C221.55 22.3123 224.5 26.1281 224.5 30Z" stroke="#AE5C4A"/>
</svg>
