<svg width="145" height="72" viewBox="0 0 145 72" fill="none" xmlns="http://www.w3.org/2000/svg">
<path d="M72.4431 55.3053C55.2967 59.4994 39.2423 61.0384 27.1541 60.148C21.1072 59.7026 16.0819 58.6512 12.4152 57.0403C8.73998 55.4257 6.51726 53.2913 5.8896 50.7253C5.26193 48.1593 6.24842 45.2399 8.76335 42.1111C11.2725 38.9895 15.245 35.7372 20.4036 32.5508C30.7159 26.1811 45.668 20.1357 62.8144 15.9415C79.9607 11.7474 96.0152 10.2083 108.103 11.0987C114.15 11.5442 119.176 12.5955 122.842 14.2064C126.518 15.821 128.74 17.9555 129.368 20.5215C129.996 23.0875 129.009 26.0069 126.494 29.1357C123.985 32.2572 120.012 35.5095 114.854 38.6959C104.542 45.0657 89.5895 51.1111 72.4431 55.3053Z" stroke="#FAA060"/>
<path d="M109.824 11.0108L127.5 11.0108L144.176 11.9892" stroke="#FAA060"/>
<path d="M86.6191 4L119.738 13.1712" stroke="#FAA060"/>
</svg>
