<svg width="25" height="24" viewBox="0 0 25 24" fill="none" xmlns="http://www.w3.org/2000/svg">
<path d="M12.4816 4.37644L11.3629 3.20779C8.73706 0.464546 3.92223 1.4112 2.18414 4.86008C1.36815 6.48224 1.18404 8.8243 2.67405 11.8133C4.10945 14.6914 7.09571 18.1386 12.4816 21.8936C17.8675 18.1386 20.8522 14.6914 22.2891 11.8133C23.7791 8.82272 23.5966 6.48224 22.779 4.86008C21.041 1.4112 16.2261 0.462961 13.6003 3.2062L12.4816 4.37644ZM12.4816 23.8043C-11.4413 7.73811 5.11579 -4.80153 12.207 1.83141C12.3006 1.91862 12.3927 2.00901 12.4816 2.10256C12.5696 2.00909 12.6612 1.91917 12.7562 1.833C19.8458 -4.8047 36.4044 7.73652 12.4816 23.8043Z" fill="white"/>
</svg>
