<svg width="19" height="17" viewBox="0 0 19 17" fill="none" xmlns="http://www.w3.org/2000/svg">
<path d="M17.9287 3.81603C17.6538 3.17954 17.2575 2.60276 16.7618 2.11798C16.2658 1.63175 15.681 1.24536 15.0392 0.9798C14.3736 0.70334 13.6598 0.561832 12.9392 0.563491C11.9281 0.563491 10.9417 0.840346 10.0845 1.3633C9.8794 1.48839 9.68457 1.6258 9.5 1.7755C9.31543 1.6258 9.12061 1.48839 8.91553 1.3633C8.0583 0.840346 7.07188 0.563491 6.06084 0.563491C5.33281 0.563491 4.62734 0.702944 3.96084 0.9798C3.31689 1.2464 2.73652 1.6299 2.23818 2.11798C1.74189 2.60222 1.34543 3.17913 1.07129 3.81603C0.78623 4.47843 0.640625 5.18185 0.640625 5.90578C0.640625 6.58869 0.780078 7.30031 1.05693 8.02423C1.28867 8.62921 1.6209 9.25675 2.04541 9.89044C2.71807 10.8933 3.64297 11.9392 4.79141 12.9994C6.69453 14.7569 8.5792 15.971 8.65918 16.0202L9.14522 16.3319C9.36055 16.4693 9.6374 16.4693 9.85274 16.3319L10.3388 16.0202C10.4188 15.969 12.3014 14.7569 14.2065 12.9994C15.355 11.9392 16.2799 10.8933 16.9525 9.89044C17.3771 9.25675 17.7113 8.62921 17.941 8.02423C18.2179 7.30031 18.3573 6.58869 18.3573 5.90578C18.3594 5.18185 18.2138 4.47843 17.9287 3.81603Z" fill="#FF4F4F"/>
</svg>
