<svg width="150" height="135" viewBox="0 0 150 135" fill="none" xmlns="http://www.w3.org/2000/svg">
<path d="M33.8495 99.2542L27.8408 102.687L27.3894 101.896L31.8699 99.337L26.2486 99.8994L25.9311 99.3436L29.2745 94.7734L24.7853 97.3378L24.3339 96.5477L30.3426 93.1152L30.8287 93.9662L27.1318 99.0263L33.3684 98.4119L33.8495 99.2542Z" fill="white"/>
<path d="M35.3531 100.678L29.8402 104.943L29.2834 104.223L34.7963 99.9587L35.3531 100.678Z" fill="white"/>
<path d="M34.2941 109.966C33.971 109.639 33.7375 109.289 33.5939 108.915C33.4596 108.542 33.4219 108.181 33.4807 107.833C33.5443 107.48 33.709 107.167 33.9748 106.895L34.6562 107.586C34.4471 107.839 34.3439 108.128 34.3464 108.454C34.3584 108.779 34.5237 109.103 34.8421 109.426C35.1465 109.734 35.4613 109.901 35.7864 109.927C36.1209 109.953 36.4092 109.846 36.6512 109.607C36.841 109.42 36.9436 109.215 36.9592 108.994C36.9748 108.773 36.9362 108.553 36.8433 108.336C36.7505 108.118 36.6085 107.841 36.4174 107.505C36.1797 107.094 36.0052 106.746 35.8939 106.463C35.7873 106.184 35.754 105.884 35.7938 105.564C35.843 105.244 36.0218 104.931 36.3302 104.627C36.6007 104.36 36.9082 104.192 37.2528 104.124C37.5974 104.055 37.9484 104.088 38.3058 104.223C38.6678 104.362 39.0081 104.593 39.3266 104.915C39.7855 105.38 40.0439 105.875 40.1017 106.398C40.1643 106.927 40.0221 107.399 39.6752 107.817L38.9728 107.105C39.1392 106.894 39.2069 106.63 39.176 106.314C39.1498 105.994 38.9939 105.689 38.7082 105.399C38.4413 105.129 38.1523 104.978 37.8414 104.948C37.5352 104.913 37.2564 105.02 37.0049 105.268C36.8246 105.446 36.7267 105.641 36.7111 105.853C36.7003 106.07 36.7366 106.282 36.8201 106.49C36.913 106.698 37.055 106.975 37.246 107.32C37.479 107.736 37.6487 108.089 37.7553 108.377C37.8665 108.661 37.8999 108.965 37.8553 109.29C37.8155 109.61 37.639 109.925 37.3259 110.234C37.0839 110.473 36.7929 110.633 36.453 110.716C36.113 110.799 35.7525 110.78 35.3714 110.659C34.9904 110.539 34.6313 110.308 34.2941 109.966Z" fill="white"/>
<path d="M42.6897 108.893L41.2749 110.744L43.2931 112.287L42.8377 112.883L40.8195 111.34L39.3623 113.247L41.6188 114.972L41.1634 115.568L38.1838 113.291L42.4221 107.745L45.4016 110.022L44.9462 110.618L42.6897 108.893Z" fill="white"/>
<path d="M47.442 119.241L47.3739 115.944L46.4121 115.41L45.0288 117.902L44.2332 117.46L47.6162 111.366L49.5834 112.458C50.0438 112.714 50.3878 113.008 50.6152 113.34C50.8484 113.675 50.9693 114.02 50.9778 114.376C50.9863 114.731 50.8951 115.081 50.7042 115.425C50.4713 115.845 50.1434 116.147 49.7206 116.331C49.3037 116.519 48.8242 116.532 48.2822 116.368L48.395 119.77L47.442 119.241ZM46.7664 114.772L47.938 115.422C48.3693 115.661 48.7511 115.736 49.0832 115.646C49.4186 115.55 49.685 115.324 49.8824 114.969C50.083 114.607 50.1305 114.268 50.0248 113.95C49.925 113.635 49.6565 113.356 49.2194 113.114L48.0478 112.463L46.7664 114.772Z" fill="white"/>
<path d="M54.7261 114.784L52.1407 121.256L51.2956 120.919L53.8811 114.446L54.7261 114.784Z" fill="white"/>
<path d="M56.9853 119.252C57.1515 118.592 57.4493 118.038 57.8786 117.59C58.3096 117.134 58.818 116.823 59.4036 116.654C59.9957 116.487 60.6053 116.482 61.2324 116.64C61.9693 116.826 62.5677 117.166 63.0276 117.66C63.4874 118.154 63.7611 118.76 63.8486 119.476L62.7917 119.21C62.7069 118.755 62.5144 118.373 62.2143 118.064C61.9206 117.756 61.5281 117.54 61.0368 117.416C60.5649 117.297 60.1138 117.3 59.6834 117.426C59.2531 117.551 58.8799 117.79 58.5639 118.144C58.2496 118.491 58.024 118.936 57.8871 119.479C57.7518 120.015 57.7395 120.514 57.8502 120.975C57.9625 121.43 58.1784 121.814 58.4979 122.129C58.8174 122.443 59.2132 122.66 59.6851 122.778C60.1764 122.902 60.6234 122.902 61.0263 122.776C61.4372 122.646 61.7878 122.401 62.0779 122.041L63.1349 122.307C62.7198 122.89 62.1927 123.29 61.5536 123.507C60.9161 123.718 60.2289 123.73 59.492 123.545C58.8649 123.386 58.3295 123.097 57.8857 122.676C57.4499 122.249 57.1494 121.737 56.984 121.138C56.8186 120.54 56.8191 119.911 56.9853 119.252Z" fill="white"/>
<path d="M68.0873 124.734C67.4428 124.681 66.8671 124.483 66.3602 124.14C65.8538 123.791 65.4667 123.334 65.1987 122.77C64.9379 122.2 64.8355 121.577 64.8913 120.899C64.9471 120.221 65.15 119.626 65.4999 119.113C65.8571 118.594 66.3137 118.207 66.8699 117.951C67.4266 117.689 68.0272 117.585 68.6716 117.638C69.3228 117.692 69.9015 117.893 70.4079 118.243C70.9148 118.585 71.2989 119.038 71.5602 119.602C71.8215 120.165 71.924 120.789 71.8676 121.473C71.8113 122.158 71.6081 122.756 71.2582 123.269C70.9082 123.782 70.4549 124.17 69.8982 124.432C69.342 124.687 68.7384 124.788 68.0873 124.734ZM68.1521 123.947C68.6371 123.987 69.0816 123.91 69.4856 123.715C69.8962 123.522 70.2284 123.225 70.4821 122.824C70.7425 122.424 70.8954 121.949 70.9408 121.397C70.9867 120.839 70.9137 120.345 70.7218 119.914C70.537 119.477 70.2612 119.13 69.8944 118.873C69.5277 118.615 69.0985 118.466 68.6068 118.425C68.1151 118.385 67.6673 118.462 67.2634 118.656C66.8594 118.85 66.5272 119.147 66.2668 119.547C66.0137 119.941 65.8641 120.417 65.8181 120.975C65.7727 121.527 65.8424 122.021 66.0272 122.457C66.2186 122.895 66.4977 123.242 66.8645 123.5C67.2379 123.758 67.6671 123.907 68.1521 123.947Z" fill="white"/>
<path d="M77.2161 124.389L75.3438 121.674L74.247 121.758L74.4642 124.6L73.5568 124.669L73.0257 117.719L75.2692 117.548C75.7943 117.508 76.2432 117.564 76.6159 117.716C76.9952 117.867 77.2863 118.089 77.4891 118.381C77.692 118.673 77.8084 119.015 77.8384 119.408C77.8749 119.886 77.7676 120.319 77.5164 120.706C77.2718 121.092 76.8782 121.366 76.3356 121.528L78.303 124.306L77.2161 124.389ZM74.1914 121.03L75.5275 120.928C76.0194 120.891 76.3792 120.743 76.6068 120.485C76.834 120.22 76.9321 119.885 76.9011 119.479C76.8696 119.067 76.7222 118.757 76.459 118.55C76.2025 118.342 75.8249 118.258 75.3264 118.296L73.9902 118.398L74.1914 121.03Z" fill="white"/>
<path d="M81.9956 116.379C82.7347 116.203 83.4067 116.189 84.0115 116.339C84.6213 116.482 85.1301 116.775 85.5378 117.219C85.9521 117.661 86.2422 118.229 86.4081 118.923C86.5739 119.617 86.5722 120.255 86.4029 120.837C86.2386 121.411 85.9166 121.899 85.4371 122.301C84.9625 122.696 84.3556 122.982 83.6164 123.158L81.5059 123.663L79.8851 116.884L81.9956 116.379ZM83.442 122.429C84.3174 122.22 84.9302 121.83 85.2804 121.259C85.6292 120.682 85.7035 119.976 85.5035 119.139C85.302 118.296 84.9112 117.694 84.3312 117.332C83.7577 116.969 83.0365 116.891 82.1676 117.099L80.9422 117.392L82.2166 122.722L83.442 122.429Z" fill="white"/>
<path d="M87.9998 114.425L90.5059 120.929L89.6567 121.256L87.1506 114.752L87.9998 114.425Z" fill="white"/>
<path d="M97.5295 115.749L94.8538 117.192L95.0965 118.822L94.2515 119.277L93.1805 111.982L94.1047 111.483L99.6031 116.392L98.7581 116.847L97.5295 115.749ZM96.9495 115.221L94.1698 112.721L94.7314 116.417L96.9495 115.221Z" fill="white"/>
<path d="M103.804 103.833L104.304 104.378L102.069 106.425L103.657 108.158L105.471 106.496L105.971 107.042L104.157 108.703L106.278 111.019L105.607 111.633L100.899 106.494L103.804 103.833Z" fill="white"/>
<path d="M112.174 102.237L110.255 104.595L111.103 106.007L110.497 106.752L106.714 100.422L107.377 99.6079L114.336 102.037L113.729 102.782L112.174 102.237ZM111.436 101.972L107.911 100.726L109.845 103.926L111.436 101.972Z" fill="white"/>
<path d="M116.667 98.1343C116.432 98.5294 116.151 98.8435 115.826 99.0765C115.499 99.3003 115.159 99.4276 114.807 99.4584C114.449 99.4857 114.105 99.4049 113.775 99.216L114.272 98.3829C114.57 98.5215 114.876 98.5487 115.19 98.4643C115.502 98.3708 115.774 98.1294 116.006 97.74C116.228 97.3678 116.31 97.0211 116.253 96.7C116.194 96.3697 116.018 96.1176 115.726 95.9435C115.497 95.8069 115.274 95.759 115.055 95.7996C114.837 95.8402 114.635 95.9328 114.447 96.0774C114.26 96.222 114.028 96.429 113.751 96.6985C113.413 97.0322 113.12 97.2885 112.874 97.4676C112.631 97.6409 112.349 97.7486 112.029 97.7907C111.707 97.8236 111.359 97.7291 110.987 97.5072C110.661 97.3127 110.421 97.0572 110.268 96.741C110.115 96.4247 110.059 96.0767 110.099 95.697C110.142 95.3116 110.28 94.9242 110.512 94.5348C110.847 93.9736 111.26 93.5991 111.752 93.4114C112.248 93.2179 112.742 93.2365 113.233 93.4672L112.721 94.3262C112.474 94.2182 112.202 94.219 111.904 94.3285C111.6 94.4345 111.344 94.6622 111.136 95.0115C110.942 95.3379 110.869 95.6554 110.918 95.9639C110.961 96.2691 111.134 96.5121 111.438 96.6931C111.655 96.8228 111.869 96.8685 112.078 96.8302C112.29 96.7861 112.487 96.6975 112.667 96.5644C112.845 96.4221 113.077 96.2151 113.363 95.9433C113.708 95.613 114.006 95.3601 114.258 95.1844C114.504 95.0054 114.791 94.8965 115.116 94.8579C115.436 94.8158 115.785 94.9074 116.163 95.1327C116.455 95.3068 116.684 95.548 116.85 95.8562C117.015 96.1645 117.087 96.5181 117.067 96.9172C117.046 97.3163 116.913 97.722 116.667 98.1343Z" fill="white"/>
<path d="M114.533 85.8828L120.974 88.5445L120.627 89.3856L117.706 88.1788L116.351 91.4598L119.271 92.6665L118.924 93.5075L112.482 90.8459L112.83 90.0048L115.658 91.1734L117.013 87.8924L114.185 86.7239L114.533 85.8828Z" fill="white"/>
<path d="M115.062 83.3925L121.788 85.2185L121.55 86.0967L114.823 84.2707L115.062 83.3925Z" fill="white"/>
<path d="M123.231 77.6344C123.146 78.2754 122.92 78.8405 122.552 79.3297C122.178 79.8181 121.703 80.182 121.126 80.4215C120.544 80.6536 119.916 80.7249 119.242 80.6354C118.568 80.5459 117.983 80.3136 117.488 79.9385C116.988 79.556 116.624 79.0806 116.396 78.5124C116.163 77.9434 116.088 77.3383 116.173 76.6973C116.259 76.0496 116.489 75.4816 116.864 74.9933C117.231 74.5041 117.703 74.143 118.278 73.9101C118.854 73.6772 119.482 73.6059 120.163 73.6963C120.844 73.7866 121.432 74.0194 121.926 74.3944C122.421 74.7695 122.786 75.2416 123.02 75.8106C123.247 76.3788 123.317 76.9867 123.231 77.6344ZM122.448 77.5304C122.512 77.0479 122.457 76.6002 122.284 76.187C122.111 75.7673 121.831 75.4207 121.443 75.1474C121.057 74.8674 120.589 74.691 120.041 74.6182C119.485 74.5445 118.988 74.5928 118.549 74.7631C118.103 74.9259 117.743 75.184 117.467 75.5375C117.192 75.891 117.021 76.3122 116.956 76.8013C116.892 77.2903 116.946 77.7414 117.12 78.1545C117.294 78.5677 117.574 78.9142 117.96 79.1942C118.341 79.4667 118.809 79.6398 119.364 79.7135C119.913 79.7863 120.41 79.7413 120.855 79.5785C121.301 79.4091 121.662 79.1476 121.938 78.7942C122.214 78.4341 122.384 78.0128 122.448 77.5304Z" fill="white"/>
<path d="M123.268 66.6614L123.297 67.5709L117.87 71.4108L123.417 71.229L123.447 72.1385L116.471 72.3672L116.441 71.4577L121.858 67.6181L116.321 67.7997L116.291 66.8902L123.268 66.6614Z" fill="white"/>
<path d="M16.6011 67.0066L23.5206 66.9199L23.5275 67.8299L18.3679 67.8945L23.5452 70.1298L23.5501 70.7698L18.3982 73.1445L23.5678 73.0797L23.5748 73.9897L16.6553 74.0764L16.6478 73.0964L22.3477 70.4648L16.6085 67.9766L16.6011 67.0066Z" fill="white"/>
<path d="M17.134 63.9651L24.0514 64.8199L23.9336 65.7223L17.0162 64.8674L17.134 63.9651Z" fill="white"/>
<path d="M25.3356 59.1018C25.2226 59.5477 25.0433 59.9294 24.7978 60.2467C24.5475 60.5561 24.2577 60.7768 23.9285 60.9089C23.5928 61.0395 23.2396 61.0628 22.8688 60.9789L23.1072 60.0386C23.4327 60.084 23.7341 60.0206 24.0116 59.8483C24.2843 59.668 24.4763 59.3581 24.5877 58.9187C24.6942 58.4986 24.6741 58.1437 24.5275 57.8538C24.3761 57.556 24.1353 57.3666 23.805 57.2857C23.546 57.2223 23.3175 57.2418 23.1196 57.3444C22.9217 57.4469 22.7536 57.5945 22.6154 57.7871C22.4771 57.9797 22.3136 58.2451 22.1247 58.5832C21.8951 59.0006 21.6877 59.3307 21.5023 59.5736C21.3186 59.81 21.0791 59.995 20.7839 60.1286C20.4839 60.2542 20.1234 60.2654 19.7025 60.1623C19.3334 60.0719 19.0302 59.8982 18.7927 59.641C18.5553 59.3838 18.4015 59.0682 18.3313 58.6941C18.2627 58.3135 18.2841 57.9035 18.3955 57.4641C18.556 56.8308 18.8457 56.3527 19.2646 56.0297C19.6851 55.7003 20.1642 55.5739 20.7018 55.6507L20.456 56.62C20.1888 56.5889 19.9278 56.6691 19.6729 56.8606C19.4116 57.0506 19.2309 57.3427 19.131 57.7369C19.0376 58.1052 19.0586 58.4295 19.1939 58.7097C19.3227 58.9883 19.5587 59.1697 19.9019 59.2537C20.1479 59.314 20.3659 59.2953 20.5557 59.1976C20.7471 59.0935 20.9103 58.9516 21.0453 58.7719C21.1754 58.5841 21.339 58.3187 21.536 57.9758C21.772 57.56 21.986 57.2315 22.1778 56.9902C22.3632 56.7473 22.6067 56.5599 22.9084 56.4278C23.2036 56.2942 23.5649 56.2797 23.9922 56.3844C24.3225 56.4653 24.6112 56.6286 24.8583 56.8745C25.1055 57.1203 25.2763 57.4367 25.3708 57.8236C25.4653 58.2105 25.4536 58.6366 25.3356 59.1018Z" fill="white"/>
<path d="M21.1261 51.9824L23.2932 52.8383L24.2476 50.4844L24.9451 50.7599L23.9908 53.1138L26.223 53.9954L27.2901 51.3635L27.9876 51.639L26.5786 55.1142L20.0866 52.5502L21.4956 49.075L22.1932 49.3505L21.1261 51.9824Z" fill="white"/>
<path d="M31.0813 46.1557L27.7699 46.1768L27.2157 47.127L29.6909 48.5398L29.2324 49.3259L23.1791 45.8707L24.3126 43.9271C24.578 43.4721 24.8795 43.1338 25.2172 42.912C25.5582 42.6845 25.9072 42.569 26.2643 42.5656C26.6213 42.5621 26.9706 42.6579 27.3122 42.8529C27.7291 43.0908 28.0262 43.4216 28.2036 43.8452C28.3843 44.2631 28.3874 44.7408 28.2129 45.2783L31.6304 45.2141L31.0813 46.1557ZM26.5817 46.7651L27.2568 45.6076C27.5053 45.1814 27.5875 44.8023 27.5033 44.4703C27.4134 44.1349 27.1918 43.8665 26.8386 43.6649C26.4797 43.46 26.1396 43.4079 25.8185 43.5086C25.5007 43.6035 25.2159 43.867 24.964 44.2989L24.2889 45.4564L26.5817 46.7651Z" fill="white"/>
<path d="M28.0751 38.4829L33.6536 42.6616L33.1016 43.385L27.5231 39.2063L28.0751 38.4829Z" fill="white"/>
<path d="M33.2516 37.7003C32.7652 37.2251 32.4368 36.69 32.2666 36.095C32.0915 35.4954 32.0798 34.9015 32.2314 34.3134C32.3877 33.7205 32.6936 33.1946 33.1491 32.7356C33.6845 32.1962 34.2829 31.8534 34.9443 31.7074C35.6058 31.5614 36.2689 31.6314 36.9338 31.9173L36.166 32.691C35.7293 32.5348 35.3008 32.5076 34.8804 32.6094C34.4646 32.7066 34.0783 32.935 33.7214 33.2946C33.3786 33.64 33.1521 34.0292 33.0419 34.462C32.9317 34.8949 32.9493 35.3361 33.0948 35.7857C33.2355 36.2307 33.5061 36.6489 33.9067 37.0402C34.3026 37.4268 34.7282 37.6888 35.1836 37.8261C35.6343 37.9588 36.0768 37.9671 36.5114 37.851C36.9459 37.7349 37.3345 37.5042 37.6773 37.1588C38.0342 36.7991 38.2608 36.4147 38.357 36.0054C38.4531 35.5868 38.4191 35.1621 38.2548 34.7314L39.0226 33.9577C39.3164 34.6081 39.3948 35.2625 39.2579 35.9209C39.1163 36.5747 38.7778 37.1713 38.2425 37.7108C37.787 38.1698 37.2641 38.4837 36.6738 38.6527C36.0834 38.8122 35.4871 38.8122 34.8848 38.6525C34.2825 38.4928 33.7381 38.1754 33.2516 37.7003Z" fill="white"/>
<path d="M44.1546 32.9574C43.6317 33.3378 43.0656 33.5641 42.4564 33.6363C41.8432 33.7032 41.2498 33.6114 40.6762 33.3609C40.104 33.1012 39.6162 32.6976 39.2129 32.1501C38.8096 31.6026 38.5718 31.0213 38.4996 30.4061C38.4287 29.7816 38.52 29.1917 38.7733 28.6364C39.0228 28.0758 39.4089 27.6052 39.9319 27.2248C40.4602 26.8405 41.0309 26.6149 41.6441 26.548C42.2533 26.4758 42.842 26.5669 43.4103 26.8213C43.9785 27.0757 44.4663 27.4793 44.8735 28.0321C45.2808 28.585 45.5206 29.169 45.5928 29.7842C45.6651 30.3994 45.5766 30.9873 45.3271 31.548C45.0738 32.1033 44.6829 32.5731 44.1546 32.9574ZM43.6861 32.3213C44.0796 32.0351 44.3655 31.6869 44.5438 31.277C44.7274 30.8631 44.7836 30.4223 44.7125 29.9548C44.6467 29.4833 44.4497 29.0248 44.1215 28.5792C43.7894 28.1284 43.4091 27.8032 42.9806 27.6038C42.5536 27.395 42.1166 27.3131 41.6695 27.3581C41.2224 27.4031 40.7993 27.5707 40.4004 27.8609C40.0015 28.1511 39.7129 28.5012 39.5346 28.9112C39.3564 29.3211 39.3001 29.7618 39.3659 30.2334C39.4332 30.6956 39.6329 31.1521 39.965 31.603C40.2932 32.0485 40.6707 32.3756 41.0977 32.5844C41.5301 32.7892 41.9699 32.8691 42.417 32.8241C42.8695 32.7752 43.2925 32.6076 43.6861 32.3213Z" fill="white"/>
<path d="M51.1717 28.8885L48.3831 27.118L47.4049 27.6211L48.7174 30.1509L47.9082 30.5672L44.6983 24.3803L46.6992 23.3511C47.1675 23.1102 47.6032 22.9873 48.0062 22.9824C48.4152 22.9744 48.7703 23.0654 49.0716 23.2553C49.3729 23.4452 49.6141 23.7147 49.7952 24.0638C50.0163 24.4899 50.0867 24.9297 50.0066 25.3832C49.9324 25.8337 49.6769 26.2388 49.2401 26.5984L52.141 28.3899L51.1717 28.8885ZM47.0687 26.9732L48.2603 26.3602C48.699 26.1346 48.9728 25.8588 49.0816 25.5329C49.1874 25.2012 49.1466 24.8548 48.9593 24.4938C48.769 24.1269 48.5119 23.8993 48.1882 23.8109C47.8704 23.7195 47.4892 23.7881 47.0445 24.0168L45.8529 24.6298L47.0687 26.9732Z" fill="white"/>
<path d="M54.0935 20.3383C54.8146 20.0982 55.483 20.0267 56.0988 20.1238C56.7187 20.2125 57.2512 20.4603 57.6963 20.8672C58.1476 21.272 58.4862 21.8128 58.712 22.4894C58.9379 23.1661 58.9918 23.8016 58.8739 24.3959C58.7602 24.9818 58.482 25.4961 58.0393 25.9386C57.6009 26.3726 57.0211 26.7097 56.3 26.9498L54.2411 27.6353L52.0347 21.0238L54.0935 20.3383ZM56.0626 26.2384C56.9165 25.9541 57.4931 25.5127 57.7923 24.9141C58.0895 24.3093 58.1019 23.599 57.8297 22.7832C57.5553 21.9611 57.1134 21.3951 56.5039 21.0851C55.9007 20.773 55.1754 20.758 54.3278 21.0402L53.1323 21.4383L54.8671 26.6364L56.0626 26.2384Z" fill="white"/>
<path d="M61.2498 18.5323L62.5705 25.376L61.6773 25.55L60.3566 18.7063L61.2498 18.5323Z" fill="white"/>
<path d="M70.1951 23.0184L67.1624 23.2292L66.7052 24.8147L65.7475 24.8813L67.808 17.7914L68.8554 17.7186L71.8129 24.4596L70.8552 24.5262L70.1951 23.0184ZM69.8873 22.298L68.4 18.8729L67.3734 22.4727L69.8873 22.298Z" fill="white"/>
<path d="M82.9786 18.9229L82.8474 19.6511L79.8615 19.1362L79.445 21.449L81.8693 21.8671L81.7381 22.5954L79.3139 22.1773L78.7574 25.2676L77.8607 25.113L79.0959 18.2533L82.9786 18.9229Z" fill="white"/>
<path d="M88.5161 26.246L85.6236 25.3106L84.601 26.6088L83.6876 26.3134L88.2749 20.5138L89.274 20.8369L89.4726 28.1843L88.5592 27.8889L88.5161 26.246ZM88.5025 25.4639L88.4158 21.7365L86.1048 24.6885L88.5025 25.4639Z" fill="white"/>
<path d="M92.6368 29.9262C92.2237 29.724 91.8882 29.4708 91.6306 29.1666C91.3819 28.8593 91.2289 28.5321 91.1717 28.1849C91.1174 27.8318 91.1724 27.4839 91.3366 27.1412L92.2079 27.5676C92.0915 27.8744 92.0874 28.1803 92.1954 28.4856C92.3124 28.7878 92.5745 29.0385 92.9817 29.2378C93.3709 29.4283 93.7241 29.4824 94.0412 29.4C94.3673 29.3147 94.6065 29.1201 94.7588 28.8161C94.8782 28.5776 94.9094 28.3517 94.8523 28.1382C94.7952 27.9247 94.6873 27.7309 94.5285 27.5567C94.3697 27.3825 94.145 27.1686 93.8545 26.9151C93.4951 26.6056 93.2165 26.3357 93.0188 26.1053C92.827 25.8778 92.698 25.6069 92.6319 25.2925C92.5747 24.975 92.6431 24.6226 92.8372 24.2352C93.0074 23.8954 93.245 23.6369 93.55 23.4596C93.8551 23.2823 94.1991 23.1984 94.5822 23.2077C94.9712 23.22 95.3693 23.3258 95.7765 23.525C96.3633 23.8122 96.7692 24.1927 96.9941 24.6665C97.2251 25.1432 97.2435 25.6346 97.0496 26.1409L96.1514 25.7013C96.2409 25.4482 96.2196 25.1781 96.0877 24.8908C95.9587 24.5976 95.7115 24.3616 95.3463 24.1829C95.005 24.0158 94.6817 23.9689 94.3766 24.0423C94.0744 24.1096 93.8442 24.3013 93.686 24.6172C93.5725 24.8437 93.5428 25.0592 93.5969 25.2638C93.6569 25.4713 93.7604 25.6593 93.9072 25.8276C94.063 25.9929 94.2876 26.2068 94.5812 26.4692C94.9376 26.7846 95.2132 27.0605 95.408 27.2969C95.6057 27.5272 95.7362 27.8026 95.7994 28.123C95.8656 28.4374 95.8001 28.7913 95.603 29.1847C95.4507 29.4887 95.2266 29.7352 94.9305 29.9243C94.6345 30.1134 94.286 30.2138 93.885 30.2254C93.484 30.2369 93.068 30.1372 92.6368 29.9262Z" fill="white"/>
<path d="M104.707 29.2194L100.731 34.9443L99.9791 34.4321L101.782 31.8365L98.8473 29.8383L97.0449 32.4338L96.2927 31.9216L100.268 26.1967L101.021 26.7089L99.2751 29.2223L102.209 31.2205L103.955 28.7071L104.707 29.2194Z" fill="white"/>
<path d="M107.288 31.5836L102.637 36.7743L101.954 36.1727L106.606 30.982L107.288 31.5836Z" fill="white"/>
<path d="M107.262 41.6997C106.837 41.2125 106.563 40.6702 106.439 40.0727C106.321 39.4709 106.364 38.8758 106.567 38.2875C106.78 37.6999 107.144 37.1844 107.659 36.7408C108.175 36.2973 108.738 36.015 109.349 35.8938C109.969 35.7733 110.569 35.8161 111.147 36.0223C111.73 36.2241 112.234 36.5686 112.659 37.0558C113.089 37.548 113.363 38.095 113.481 38.6968C113.604 39.2943 113.562 39.8847 113.354 40.4679C113.147 41.0512 112.783 41.5667 112.262 42.0146C111.742 42.4625 111.176 42.747 110.565 42.8682C109.954 42.9893 109.357 42.949 108.774 42.7472C108.196 42.5411 107.692 42.1919 107.262 41.6997ZM107.861 41.1844C108.181 41.5511 108.554 41.8062 108.98 41.9496C109.411 42.0981 109.857 42.1183 110.32 42.0101C110.788 41.9069 111.231 41.6749 111.651 41.314C112.075 40.9487 112.369 40.5459 112.534 40.1055C112.707 39.6658 112.753 39.2264 112.671 38.7873C112.588 38.3481 112.385 37.9427 112.06 37.571C111.736 37.1993 111.361 36.9418 110.935 36.7983C110.509 36.6548 110.062 36.6347 109.594 36.7379C109.136 36.8417 108.695 37.0762 108.271 37.4415C107.851 37.8024 107.555 38.2027 107.381 38.6424C107.212 39.0871 107.168 39.529 107.251 39.9682C107.338 40.4124 107.541 40.8178 107.861 41.1844Z" fill="white"/>
<path d="M112.845 49.8196L112.366 49.0463L115.167 43.0331L110.436 45.936L109.957 45.1627L115.906 41.5119L116.385 42.2852L113.593 48.2931L118.315 45.3955L118.794 46.1688L112.845 49.8196Z" fill="white"/>
<path d="M75.138 58.132V82H69.324V67.686L63.986 82H59.294L53.922 67.652V82H48.108V58.132H54.976L61.674 74.656L68.304 58.132H75.138ZM94.8569 58.132V62.79H85.1329V67.822H92.4089V72.344H85.1329V82H79.3189V58.132H94.8569Z" fill="#F47113"/>
</svg>
