<svg width="137" height="136" viewBox="0 0 137 136" fill="none" xmlns="http://www.w3.org/2000/svg">
<path d="M71.349 130.668C70.2853 130.645 69.3712 130.424 68.6068 130.005C67.8328 129.596 67.2498 129.018 66.8577 128.272C66.4563 127.526 66.2681 126.654 66.2932 125.655C66.3182 124.657 66.5499 123.794 66.9883 123.066C67.4172 122.347 68.0284 121.801 68.822 121.426C69.6061 121.061 70.53 120.89 71.5938 120.913L74.631 120.98L74.3863 130.735L71.349 130.668ZM71.5674 121.963C70.3077 121.935 69.3383 122.245 68.6592 122.893C67.9798 123.55 67.625 124.48 67.5948 125.684C67.5644 126.897 67.8766 127.851 68.5313 128.547C69.1767 129.243 70.1246 129.605 71.375 129.632L73.1386 129.671L73.331 122.002L71.5674 121.963Z" fill="#626262"/>
<path d="M58.7448 128.312L59.5176 125.142L56.0408 124.396L56.2896 123.376L59.7663 124.122L60.5623 120.858L56.6749 120.023L56.9237 119.003L62.0567 120.105L59.7417 129.599L54.6086 128.497L54.8574 127.477L58.7448 128.312ZM55.4799 130.831L58.7736 129.907L58.5481 130.831L55.2179 131.906L55.4799 130.831Z" fill="#626262"/>
<path d="M50.5485 122.28C50.1337 123.137 49.5642 123.822 48.8398 124.334C48.1114 124.855 47.3145 125.164 46.4492 125.261C45.5752 125.355 44.7218 125.224 43.8889 124.869C42.9101 124.452 42.1676 123.857 41.6614 123.084C41.1552 122.311 40.9401 121.429 41.0159 120.438L42.4198 121.036C42.4126 121.671 42.576 122.232 42.91 122.719C43.2354 123.202 43.7244 123.583 44.3769 123.861C45.0037 124.128 45.6352 124.225 46.2715 124.152C46.9077 124.078 47.4956 123.837 48.0352 123.429C48.5706 123.029 49.0092 122.476 49.3507 121.77C49.6882 121.073 49.8434 120.399 49.8162 119.749C49.785 119.108 49.5895 118.538 49.2298 118.04C48.87 117.542 48.3768 117.16 47.75 116.893C47.0974 116.614 46.4722 116.515 45.8744 116.595C45.2639 116.679 44.706 116.933 44.2009 117.356L42.797 116.758C43.5385 116.061 44.386 115.636 45.3395 115.485C46.2889 115.343 47.253 115.48 48.2318 115.897C49.0647 116.252 49.7331 116.765 50.237 117.436C50.7283 118.111 51.0067 118.873 51.0723 119.722C51.1379 120.571 50.9633 121.424 50.5485 122.28Z" fill="#626262"/>
<path d="M37.3894 109.797C38.1272 110.321 38.6684 110.963 39.013 111.723C39.3517 112.49 39.4623 113.294 39.3447 114.136C39.2137 114.981 38.8491 115.773 38.2509 116.514C37.6527 117.254 36.9411 117.794 36.1162 118.133C35.2778 118.474 34.4224 118.592 33.55 118.486C32.6717 118.387 31.8637 118.076 31.1259 117.551C30.3805 117.021 29.8384 116.373 29.4997 115.606C29.1551 114.846 29.0454 114.048 29.1706 113.211C29.2957 112.374 29.6603 111.582 30.2644 110.834C30.8685 110.086 31.583 109.543 32.4079 109.203C33.2328 108.864 34.0844 108.744 34.9627 108.843C35.8351 108.949 36.644 109.267 37.3894 109.797ZM36.6944 110.657C36.1392 110.262 35.5413 110.031 34.9007 109.964C34.2526 109.892 33.6182 109.996 32.9977 110.274C32.3697 110.548 31.8122 110.986 31.3255 111.589C30.8328 112.199 30.534 112.821 30.429 113.455C30.3105 114.091 30.3722 114.689 30.6139 115.249C30.8557 115.81 31.258 116.29 31.8209 116.691C32.3837 117.091 32.9854 117.324 33.626 117.391C34.2665 117.458 34.9009 117.355 35.529 117.081C36.1436 116.81 36.6972 116.369 37.1898 115.759C37.6766 115.156 37.9792 114.537 38.0977 113.901C38.2086 113.26 38.1431 112.659 37.9014 112.098C37.652 111.532 37.2497 111.052 36.6944 110.657Z" fill="#626262"/>
<path d="M22.6501 110.096L27.4675 106.235C28.1448 105.692 28.5059 105.134 28.5508 104.561C28.5895 103.98 28.3543 103.411 27.8454 102.852C27.3427 102.3 26.7861 102 26.1756 101.952C25.5589 101.897 24.9119 102.141 24.2346 102.684L19.4172 106.545L18.5595 105.603L23.366 101.751C23.9995 101.243 24.6448 100.935 25.3017 100.826C25.9512 100.723 26.5701 100.794 27.1584 101.039C27.7403 101.277 28.2637 101.651 28.7287 102.162C29.1937 102.672 29.5091 103.219 29.6749 103.803C29.8344 104.379 29.8093 104.96 29.5996 105.546C29.3763 106.131 28.9478 106.678 28.3143 107.186L23.5078 111.038L22.6501 110.096Z" fill="#626262"/>
<path d="M10.9546 93.6304L21.4923 92.3751L22.2301 93.6465L15.3889 101.271L14.7072 100.096L20.6608 93.6163L11.6292 94.7928L10.9546 93.6304Z" fill="#626262"/>
<path d="M16.8274 81.2131L13.714 84.5245L14.1919 85.9885L18.0267 84.8863L18.4221 86.0974L9.04378 88.793L8.06614 85.7985C7.8373 85.0976 7.76576 84.4728 7.85153 83.924C7.93441 83.3664 8.14305 82.9086 8.47747 82.5504C8.81188 82.1923 9.24371 81.9371 9.77295 81.785C10.4188 81.5994 11.0492 81.622 11.6643 81.8528C12.2764 82.0748 12.7834 82.5307 13.1853 83.2207L16.3538 79.7624L16.8274 81.2131ZM13.2097 86.2708L12.6275 84.4875C12.4131 83.8309 12.0909 83.3849 11.6608 83.1494C11.2217 82.9165 10.7286 82.8787 10.1814 83.036C9.62524 83.1959 9.24826 83.4838 9.05045 83.8997C8.84975 84.3068 8.85803 84.843 9.07528 85.5085L9.65752 87.2918L13.2097 86.2708Z" fill="#626262"/>
<path d="M5.83313 75.8648L15.5099 74.6081L15.6958 75.8684L6.01905 77.1251L5.83313 75.8648Z" fill="#626262"/>
<path d="M15.1437 64.1192L11.0996 66.3595L11.0632 67.8991L15.0524 67.9821L15.0222 69.2558L5.26635 69.0527L5.34082 65.9035C5.35825 65.1664 5.4989 64.5485 5.76276 64.0499C6.02684 63.542 6.37648 63.1665 6.81168 62.9235C7.24688 62.6805 7.73975 62.5648 8.2903 62.5762C8.96215 62.5902 9.55006 62.7985 10.054 63.2011C10.5582 63.5943 10.8851 64.1799 11.0347 64.9579L15.1798 62.5936L15.1437 64.1192ZM10.0414 67.8778L10.0858 66.0023C10.1021 65.3118 9.9464 64.7905 9.61864 64.4383C9.28155 64.0858 8.82839 63.9037 8.25919 63.8919C7.68064 63.8798 7.22866 64.0431 6.90323 64.3817C6.57802 64.711 6.40714 65.2256 6.39059 65.9254L6.34624 67.8009L10.0414 67.8778Z" fill="#626262"/>
<path d="M16.1073 58.3675C16.0606 58.6056 15.9383 58.7928 15.7404 58.9291C15.5425 59.0654 15.324 59.1129 15.0849 59.0716C14.8458 59.0304 14.6596 58.913 14.5264 58.7196C14.3931 58.5262 14.3499 58.3104 14.3965 58.0722C14.4414 57.8433 14.5619 57.6652 14.758 57.5381C14.9559 57.4018 15.1744 57.3543 15.4135 57.3956C15.6526 57.4368 15.8388 57.5542 15.972 57.7476C16.1071 57.9319 16.1521 58.1385 16.1073 58.3675Z" fill="#626262"/>
<path d="M17.1605 32.433C17.7922 31.5769 18.5063 30.9464 19.3028 30.5416C20.097 30.1243 20.9252 29.9512 21.7873 30.0224C22.655 30.0861 23.5076 30.3899 24.3451 30.9339C25.1826 31.4779 25.7858 32.1197 26.1548 32.8593C26.5215 33.5863 26.6365 34.372 26.4998 35.2164C26.3608 36.0482 25.9754 36.8922 25.3437 37.7484L23.5401 40.1931L15.3568 34.8777L17.1605 32.433ZM24.4632 37.1765C25.2112 36.1626 25.5041 35.2085 25.3418 34.3143C25.1717 33.415 24.5818 32.6374 23.5721 31.9816C22.5546 31.3207 21.5606 31.075 20.5903 31.2446C19.6255 31.4067 18.7718 31.991 18.0293 32.9974L16.982 34.4168L23.4159 38.5959L24.4632 37.1765Z" fill="#626262"/>
<path d="M26.2005 23.948L28.5308 26.2306L31.1755 23.8536L31.9256 24.5883L29.2809 26.9653L31.6812 29.3165L34.6383 26.6588L35.3884 27.3935L31.4837 30.9029L24.5028 24.0648L28.4075 20.5554L29.1576 21.2902L26.2005 23.948ZM25.8661 20.0218L24.7884 23.1319L24.1083 22.4658L25.076 19.2478L25.8661 20.0218Z" fill="#626262"/>
<path d="M36.1202 20.9401C35.5893 20.1499 35.2977 19.3318 35.2456 18.4857C35.1883 17.6319 35.3573 16.8391 35.7524 16.1073C36.1557 15.3708 36.7469 14.7721 37.5261 14.3111C38.4419 13.7694 39.3843 13.5097 40.3534 13.5319C41.3225 13.554 42.2266 13.8637 43.0656 14.4608L41.7522 15.2377C41.1913 14.8875 40.6014 14.7113 39.9826 14.7093C39.3719 14.7025 38.7612 14.8796 38.1507 15.2408C37.5643 15.5877 37.1266 16.0306 36.8377 16.5696C36.5487 17.1086 36.4357 17.7006 36.4985 18.3454C36.5561 18.9826 36.8036 19.6265 37.2408 20.2773C37.6729 20.9203 38.1854 21.4074 38.7784 21.7386C39.3662 22.0621 39.9816 22.2178 40.6245 22.2056C41.2674 22.1934 41.8821 22.0138 42.4685 21.6669C43.079 21.3058 43.5153 20.8691 43.7773 20.3569C44.0421 19.8321 44.1271 19.2568 44.0321 18.6309L45.3455 17.854C45.5527 18.814 45.4581 19.709 45.0616 20.539C44.6598 21.3613 44.0011 22.0433 43.0853 22.585C42.3061 23.0459 41.478 23.2921 40.6011 23.3237C39.7271 23.3427 38.8945 23.1477 38.1033 22.7388C37.3122 22.3299 36.6511 21.7303 36.1202 20.9401Z" fill="#626262"/>
<path d="M54.5126 17.8136C53.6534 18.099 52.7954 18.163 51.9385 18.0054C51.0783 17.8391 50.3067 17.4714 49.6235 16.9024C48.9458 16.3217 48.439 15.586 48.1029 14.6953C47.7668 13.8046 47.669 12.9379 47.8096 12.0953C47.9557 11.2409 48.3089 10.4996 48.8692 9.87122C49.4262 9.23414 50.1343 8.77289 50.9935 8.48748C51.8615 8.19912 52.7256 8.13809 53.5857 8.30439C54.4426 8.46195 55.2082 8.82671 55.8825 9.39868C56.5569 9.97065 57.0637 10.7064 57.4031 11.6058C57.7425 12.5052 57.8419 13.3763 57.7014 14.2189C57.5609 15.0616 57.2121 15.8015 56.6551 16.4386C56.0948 17.0669 55.3806 17.5253 54.5126 17.8136ZM54.1221 16.7788C54.7687 16.564 55.2928 16.2229 55.6945 15.7553C56.1051 15.2848 56.3527 14.7259 56.4374 14.0787C56.531 13.4285 56.441 12.741 56.1675 12.0162C55.8907 11.2827 55.4996 10.6953 54.9942 10.2539C54.4943 9.80089 53.9315 9.51125 53.3057 9.38501C52.68 9.25877 52.0394 9.30452 51.3839 9.52226C50.7285 9.74 50.1999 10.0827 49.7982 10.5502C49.3965 11.0178 49.1489 11.5766 49.0553 12.2268C48.9673 12.8653 49.0617 13.5513 49.3385 14.2849C49.612 15.0096 49.9987 15.5985 50.4985 16.0516C51.0073 16.5017 51.5745 16.7899 52.2003 16.9161C52.8349 17.0394 53.4755 16.9936 54.1221 16.7788Z" fill="#626262"/>
<path d="M62.2836 6.03184L63.1031 12.1512C63.2183 13.0115 63.5124 13.6252 63.9852 13.9923C64.4673 14.3584 65.0838 14.4971 65.8346 14.4086C66.5761 14.3212 67.1276 14.0447 67.4889 13.5793C67.8596 13.1127 67.9873 12.4493 67.8721 11.5889L67.0526 5.46958L68.3178 5.3204L69.1355 11.4259C69.2432 12.2307 69.1721 12.9298 68.922 13.5231C68.6707 14.1071 68.2849 14.566 67.7647 14.8999C67.2537 15.2326 66.6553 15.4394 65.9694 15.5203C65.2835 15.6012 64.6445 15.5403 64.0524 15.3376C63.4696 15.1338 62.9794 14.7781 62.5819 14.2706C62.1924 13.7527 61.9438 13.0913 61.836 12.2865L61.0184 6.18101L62.2836 6.03184Z" fill="#626262"/>
<path d="M82.9598 5.93564L78.4238 15.3675L76.9583 15.2527L74.1528 5.24542L75.5066 5.35152L77.8172 13.9719L81.6199 5.83063L82.9598 5.93564Z" fill="#626262"/>
<path d="M87.3363 17.4964L87.0355 12.9583L85.6392 12.3087L83.8329 15.8664L82.6778 15.329L87.0954 6.62828L89.9515 7.95704C90.62 8.26807 91.1257 8.64223 91.4686 9.07953C91.8199 9.52076 92.0126 9.98594 92.0467 10.4751C92.0809 10.9642 91.9733 11.4542 91.724 11.9452C91.4197 12.5444 90.9737 12.9902 90.3859 13.2826C89.8065 13.5788 89.1277 13.6385 88.3492 13.4615L88.7199 18.1401L87.3363 17.4964ZM86.1019 11.3975L87.8028 12.1888C88.4291 12.4802 88.9748 12.5489 89.44 12.3949C89.9094 12.2327 90.273 11.8978 90.5308 11.3901C90.7928 10.8741 90.839 10.4018 90.6696 9.97322C90.5086 9.54854 90.1108 9.18855 89.4761 8.89327L87.7752 8.10192L86.1019 11.3975Z" fill="#626262"/>
<path d="M97.5777 11.3741L92.2242 19.5324L91.1258 18.887L96.4793 10.7286L97.5777 11.3741Z" fill="#626262"/>
<path d="M97.9032 25.5718L98.317 21.0945L97.0244 20.2574L94.66 23.4713L93.5907 22.7788L99.3732 14.9186L102.017 16.631C102.636 17.0318 103.082 17.4707 103.356 17.9477C103.637 18.4298 103.757 18.9122 103.714 19.395C103.671 19.8778 103.486 20.341 103.16 20.7846C102.762 21.3259 102.246 21.6967 101.613 21.8971C100.987 22.1026 100.3 22.0624 99.5501 21.7766L99.184 26.4014L97.9032 25.5718ZM97.63 19.4341L99.2046 20.454C99.7843 20.8294 100.319 20.9757 100.808 20.8928C101.302 20.8023 101.718 20.5278 102.055 20.0692C102.398 19.6031 102.519 19.1483 102.417 18.705C102.323 18.2667 101.982 17.8573 101.395 17.4768L99.8203 16.457L97.63 19.4341Z" fill="#626262"/>
<path d="M102.738 29.4233C102.558 29.2611 102.465 29.065 102.46 28.8352C102.455 28.6053 102.54 28.4055 102.713 28.2357C102.886 28.0659 103.095 27.9783 103.34 27.9731C103.585 27.9678 103.798 28.0463 103.979 28.2085C104.152 28.3645 104.238 28.5543 104.236 28.7779C104.241 29.0078 104.157 29.2076 103.983 29.3774C103.81 29.5472 103.601 29.6347 103.356 29.64C103.118 29.6515 102.912 29.5793 102.738 29.4233Z" fill="#626262"/>
<path d="M125.682 44.2466C126.102 45.2242 126.278 46.1398 126.208 46.9936C126.151 47.8526 125.859 48.6012 125.331 49.2394C124.807 49.8862 124.078 50.3863 123.144 50.7397C122.21 51.0931 121.316 51.2073 120.46 51.0824C119.617 50.9627 118.858 50.6121 118.181 50.0305C117.518 49.4542 116.976 48.6772 116.555 47.6997L115.356 44.9085L124.483 41.4555L125.682 44.2466ZM117.538 47.3281C118.035 48.4858 118.725 49.2517 119.606 49.6261C120.496 49.9971 121.504 49.9696 122.63 49.5435C123.765 49.1141 124.519 48.4702 124.89 47.6117C125.266 46.7618 125.207 45.7623 124.713 44.6132L124.017 42.9926L116.841 45.7075L117.538 47.3281Z" fill="#626262"/>
<path d="M128.396 56.0116L125.181 56.5664L125.865 60.056L124.831 60.2345L124.147 56.745L120.836 57.3164L121.6 61.2181L120.566 61.3967L119.556 56.2448L129.185 54.5828L130.195 59.7348L129.161 59.9133L128.396 56.0116ZM131.995 58.0037L129.849 55.3489L130.787 55.187L133.085 57.8156L131.995 58.0037Z" fill="#626262"/>
<path d="M125.88 65.436C126.832 65.4534 127.681 65.6837 128.428 66.1267C129.184 66.57 129.769 67.1641 130.183 67.9091C130.597 68.6635 130.795 69.4932 130.776 70.3984C130.754 71.4621 130.478 72.3859 129.948 73.1697C129.418 73.9535 128.679 74.5187 127.728 74.8654L127.76 73.3397C128.354 73.0798 128.814 72.6962 129.142 72.1888C129.47 71.6907 129.641 71.0871 129.656 70.3779C129.67 69.6967 129.524 69.0826 129.218 68.5356C128.912 67.9886 128.468 67.5557 127.887 67.237C127.315 66.9185 126.637 66.7521 125.853 66.7378C125.078 66.7236 124.394 66.8651 123.8 67.1623C123.215 67.4597 122.758 67.876 122.429 68.4115C122.101 68.9469 121.929 69.5552 121.915 70.2364C121.901 70.9455 122.042 71.5549 122.339 72.0644C122.646 72.5834 123.091 72.9836 123.673 73.265L123.641 74.7907C122.716 74.4097 122.004 73.8179 121.508 73.0154C121.02 72.213 120.787 71.2799 120.81 70.2162C120.828 69.311 121.055 68.489 121.491 67.7502C121.935 67.0209 122.54 66.4485 123.305 66.0331C124.07 65.6177 124.928 65.4186 125.88 65.436Z" fill="#626262"/>
<path d="M118.816 81.9945C119.046 81.1189 119.461 80.3673 120.06 79.7398C120.668 79.1144 121.396 78.6748 122.244 78.4209C123.098 78.1781 123.99 78.164 124.917 78.3785C125.845 78.5931 126.622 78.9931 127.249 79.5788C127.884 80.1755 128.31 80.8823 128.53 81.6991C128.758 82.518 128.758 83.3652 128.528 84.2409C128.295 85.1255 127.875 85.8805 127.267 86.5059C126.668 87.1334 125.946 87.5696 125.1 87.8145C124.254 88.0594 123.363 88.0735 122.427 87.8568C121.49 87.6402 120.708 87.2391 120.081 86.6534C119.453 86.0678 119.025 85.3656 118.797 84.5467C118.577 83.7299 118.584 82.8791 118.816 81.9945ZM119.894 82.2437C119.72 82.9027 119.72 83.5297 119.891 84.1248C120.061 84.7289 120.392 85.2462 120.887 85.6766C121.379 86.116 122.003 86.423 122.758 86.5976C123.521 86.7743 124.226 86.7743 124.87 86.5978C125.521 86.4325 126.07 86.1237 126.517 85.6717C126.963 85.2196 127.275 84.6596 127.45 83.9916C127.626 83.3236 127.628 82.6921 127.456 82.097C127.284 81.5019 126.952 80.9847 126.46 80.5453C125.975 80.117 125.35 79.8145 124.586 79.6378C123.831 79.4632 123.128 79.4586 122.477 79.624C121.824 79.7984 121.274 80.1116 120.827 80.5637C120.378 81.0247 120.067 81.5848 119.894 82.2437Z" fill="#626262"/>
<path d="M124.505 94.3176L118.899 91.7312C118.111 91.3676 117.429 91.2838 116.852 91.4799C116.272 91.6842 115.806 92.1212 115.455 92.7908C115.108 93.4522 115.028 94.0568 115.215 94.6048C115.397 95.161 115.882 95.621 116.67 95.9846L122.276 98.571L121.685 99.6994L116.091 97.1189C115.354 96.7787 114.807 96.3467 114.45 95.8227C114.102 95.3027 113.935 94.738 113.949 94.1286C113.959 93.5274 114.124 92.921 114.444 92.3092C114.765 91.6975 115.178 91.2003 115.684 90.8176C116.185 90.4433 116.762 90.2268 117.413 90.1681C118.069 90.1216 118.766 90.2685 119.503 90.6086L125.097 93.1892L124.505 94.3176Z" fill="#626262"/>
<path d="M112.983 110.75L107.487 102.141L108.43 101.013L118.65 103.974L117.779 105.015L109.036 102.379L113.845 109.719L112.983 110.75Z" fill="#626262"/>
<path d="M98.3394 110.238L102.835 111.748L104.039 110.788L101.361 107.83L102.358 107.036L108.906 114.27L106.443 116.234C105.866 116.693 105.296 116.986 104.733 117.114C104.162 117.247 103.634 117.233 103.149 117.072C102.664 116.91 102.236 116.626 101.867 116.217C101.416 115.719 101.172 115.158 101.134 114.533C101.088 113.914 101.312 113.3 101.805 112.693L97.146 111.189L98.3394 110.238ZM104.725 111.546L103.258 112.715C102.717 113.145 102.425 113.593 102.38 114.057C102.342 114.528 102.514 114.975 102.896 115.397C103.284 115.826 103.72 116.051 104.203 116.071C104.679 116.097 105.19 115.891 105.738 115.455L107.205 114.286L104.725 111.546Z" fill="#626262"/>
<path d="M97.5744 122.045L92.284 113.846L93.3918 113.217L98.6821 121.416L97.5744 122.045Z" fill="#626262"/>
<path d="M82.4376 118.066L86.1908 120.904L87.6304 120.357L86.0498 116.694L87.2408 116.241L91.1063 125.201L88.1616 126.319C87.4723 126.581 86.8422 126.686 86.2712 126.634C85.6915 126.584 85.1988 126.408 84.7931 126.103C84.3875 125.798 84.0756 125.393 83.8575 124.887C83.5912 124.27 83.5397 123.656 83.7028 123.046C83.8572 122.439 84.2632 121.92 84.9208 121.491L81.011 118.608L82.4376 118.066ZM88.0353 121.296L86.2815 121.962C85.6359 122.207 85.2182 122.545 85.0284 122.976C84.8424 123.416 84.8622 123.897 85.0877 124.42C85.3169 124.951 85.6558 125.301 86.1044 125.47C86.5442 125.642 87.0913 125.604 87.7457 125.355L89.4994 124.689L88.0353 121.296Z" fill="#626262"/>
<path d="M76.7637 119.712C77.0009 119.661 77.2216 119.699 77.4256 119.827C77.6297 119.955 77.7605 120.137 77.818 120.373C77.8755 120.608 77.842 120.826 77.7175 121.024C77.5931 121.223 77.4122 121.347 77.1749 121.398C76.9468 121.447 76.7353 121.407 76.5403 121.277C76.3363 121.149 76.2055 120.967 76.148 120.731C76.0905 120.495 76.124 120.278 76.2485 120.08C76.3638 119.883 76.5355 119.761 76.7637 119.712Z" fill="#626262"/>
<circle cx="70.0044" cy="67.4995" r="36" fill="#5A4041"/>
<g clip-path="url(#clip0_421_503)">
<path fill-rule="evenodd" clip-rule="evenodd" d="M57.6084 66.8327C57.6074 66.5838 57.7118 66.3448 57.8986 66.1682C58.0854 65.9915 58.3394 65.8918 58.6046 65.8908L82.1899 65.8057L75.8719 59.9249C75.6834 59.7494 75.5769 59.5108 75.5759 59.2616C75.5749 59.0125 75.6794 58.7731 75.8665 58.5963C76.0535 58.4194 76.3078 58.3195 76.5733 58.3186C76.8389 58.3176 77.0939 58.4157 77.2824 58.5912L85.313 66.0684C85.4065 66.1552 85.4808 66.2585 85.5317 66.3723C85.5825 66.4861 85.609 66.6082 85.6095 66.7316C85.61 66.855 85.5845 66.9773 85.5346 67.0915C85.4847 67.2057 85.4112 67.3095 85.3184 67.3969L77.3494 74.9319C77.1624 75.1088 76.9081 75.2087 76.6426 75.2096C76.377 75.2106 76.1219 75.1125 75.9335 74.937C75.745 74.7615 75.6385 74.5229 75.6375 74.2738C75.6365 74.0246 75.741 73.7853 75.928 73.6084L82.1976 67.6822L58.6123 67.7673C58.347 67.7683 58.0923 67.6703 57.904 67.4951C57.7158 67.3198 57.6095 67.0815 57.6084 66.8327Z" fill="white"/>
</g>
<defs>
<clipPath id="clip0_421_503">
<rect width="30.0246" height="31.9994" fill="white" transform="matrix(-0.00410008 -0.999992 0.999994 -0.00360963 55.6699 81.8521)"/>
</clipPath>
</defs>
</svg>
