<svg width="180" height="180" viewBox="0 0 180 180" fill="none" xmlns="http://www.w3.org/2000/svg">
<circle cx="90" cy="90" r="90" fill="#FF9A62"/>
<path d="M46.0345 51.6617L36.3668 42.4989L37.4936 41.31L47.1613 50.4728L46.0345 51.6617Z" fill="white"/>
<path d="M28.8307 52.0173C29.4878 51.0565 30.3101 50.3322 31.2977 49.8446C32.2952 49.3637 33.3544 49.1648 34.4751 49.2479C35.5989 49.3477 36.666 49.743 37.6764 50.4339C38.6867 51.1248 39.4373 51.9724 39.9281 52.9767C40.422 53.9976 40.6209 55.0568 40.5248 56.154C40.4386 57.258 40.0669 58.2905 39.4099 59.2513C38.7461 60.2221 37.9155 60.9479 36.9179 61.4287C35.9303 61.9164 34.8795 62.1137 33.7656 62.0207C32.6517 61.9277 31.5846 61.5324 30.5643 60.8348C29.544 60.1371 28.7885 59.2861 28.2977 58.2818C27.8069 57.2775 27.6047 56.2233 27.6909 55.1193C27.787 54.0221 28.1669 52.9881 28.8307 52.0173ZM30.0046 52.82C29.5101 53.5431 29.2348 54.307 29.1788 55.1119C29.1159 55.9266 29.2848 56.7108 29.6853 57.4644C30.0791 58.2279 30.687 58.8907 31.5092 59.4529C32.3413 60.0219 33.1795 60.348 34.024 60.4311C34.8715 60.531 35.6601 60.4088 36.3898 60.0645C37.1194 59.7203 37.7349 59.1817 38.2361 58.4487C38.7373 57.7156 39.016 56.9467 39.0721 56.1419C39.1281 55.3371 38.9593 54.5529 38.5655 53.7894C38.1749 53.0426 37.5636 52.3847 36.7315 51.8157C35.9093 51.2535 35.0744 50.9225 34.2269 50.8227C33.3725 50.7327 32.5805 50.8599 31.8509 51.2041C31.1145 51.5582 30.499 52.0969 30.0046 52.82Z" fill="white"/>
<path d="M21.5856 66.5748L27.4809 65.8745L28.2687 64.0579L23.5622 62.0169L24.2139 60.5141L35.7242 65.5057L34.1129 69.2213C33.7357 70.0911 33.2696 70.7587 32.7145 71.2243C32.1547 71.7009 31.5571 71.9781 30.9217 72.0557C30.2864 72.1333 29.644 72.0313 28.9944 71.7496C28.2017 71.4059 27.6029 70.8715 27.1979 70.1465C26.7881 69.4326 26.6823 68.5757 26.8804 67.576L20.805 68.3748L21.5856 66.5748ZM29.4742 64.5807L28.5146 66.7936C28.1613 67.6083 28.0945 68.3052 28.3142 68.8845C28.5449 69.4684 28.996 69.9061 29.6676 70.1973C30.3502 70.4933 30.9669 70.5188 31.5179 70.2738C32.0641 70.0398 32.5162 69.5099 32.8743 68.6842L33.8339 66.4713L29.4742 64.5807Z" fill="white"/>
<path d="M30.371 76.3835L26.3023 75.366L25.1931 79.8014L23.8834 79.4738L24.9927 75.0384L20.8017 73.9903L19.5615 78.9496L18.2518 78.6221L19.8895 72.0737L32.0781 75.122L30.4404 81.6703L29.1307 81.3428L30.371 76.3835Z" fill="white"/>
<path d="M29.2715 97.0553L16.834 96.377L16.9232 94.7414L26.1974 95.2472L17.1486 90.6076L17.2113 89.4573L26.73 85.8122L17.4378 85.3055L17.527 83.6699L29.9645 84.3482L29.8684 86.1095L19.3368 90.1501L29.3666 95.3119L29.2715 97.0553Z" fill="white"/>
<path d="M31.4059 106.075L19.1501 108.758L18.7999 107.158L31.0556 104.475L31.4059 106.075Z" fill="white"/>
<path d="M32.0689 119.653C31.0893 120.014 30.1485 119.977 29.2464 119.542C28.3597 119.114 27.6632 118.214 27.1569 116.84L26.3226 114.577L21.4079 116.389L20.8414 114.852L32.6131 110.512L34.0139 114.312C34.5036 115.641 34.5542 116.767 34.1656 117.69C33.7811 118.625 33.0822 119.279 32.0689 119.653ZM28.4236 116.373C28.739 117.229 29.1572 117.791 29.6782 118.059C30.1991 118.328 30.803 118.335 31.4899 118.082C32.9423 117.547 33.3614 116.446 32.7472 114.779L31.9129 112.516L27.5893 114.11L28.4236 116.373Z" fill="white"/>
<path d="M27.5857 129.742C27.1724 129.025 26.9259 128.308 26.846 127.592C26.7825 126.881 26.8815 126.236 27.143 125.656C27.4149 125.07 27.8442 124.601 28.4309 124.249L29.3023 125.762C28.8228 126.108 28.511 126.564 28.3671 127.132C28.2396 127.704 28.3794 128.343 28.7867 129.05C29.176 129.726 29.6478 130.161 30.2022 130.354C30.7729 130.551 31.3235 130.497 31.8538 130.192C32.2697 129.952 32.5418 129.643 32.67 129.265C32.7982 128.886 32.8311 128.486 32.7686 128.065C32.7061 127.644 32.5852 127.098 32.4057 126.426C32.1797 125.6 32.0344 124.915 31.97 124.371C31.9116 123.837 31.9902 123.3 32.2056 122.76C32.4375 122.225 32.8914 121.763 33.5673 121.374C34.16 121.032 34.7719 120.881 35.4032 120.919C36.0344 120.957 36.6305 121.174 37.1915 121.571C37.7585 121.979 38.2456 122.536 38.6529 123.243C39.2399 124.262 39.4643 125.241 39.3261 126.179C39.1939 127.127 38.7306 127.886 37.9362 128.454L37.0378 126.894C37.4238 126.603 37.662 126.175 37.7524 125.61C37.8531 125.04 37.7208 124.438 37.3554 123.803C37.0141 123.211 36.5796 122.817 36.052 122.622C35.5348 122.422 35.0007 122.48 34.4496 122.797C34.0544 123.025 33.795 123.32 33.6712 123.682C33.5534 124.054 33.5197 124.441 33.5702 124.841C33.6371 125.246 33.758 125.792 33.9331 126.481C34.1488 127.312 34.2836 128.003 34.3376 128.553C34.402 129.098 34.3212 129.643 34.0954 130.189C33.8799 130.728 33.429 131.196 32.7427 131.591C32.2124 131.896 31.6324 132.043 31.0028 132.032C30.3731 132.021 29.754 131.824 29.1454 131.44C28.5368 131.057 28.0169 130.491 27.5857 129.742Z" fill="white"/>
<path d="M43.0623 129.828L37.0042 134.957C36.1525 135.678 35.695 136.419 35.6318 137.18C35.5764 137.95 35.8627 138.706 36.4908 139.448C37.1112 140.181 37.8019 140.579 38.5629 140.642C39.3317 140.714 40.142 140.39 40.9937 139.669L47.0519 134.539L48.1103 135.789L42.0659 140.907C41.2691 141.582 40.4603 141.992 39.6394 142.136C38.8277 142.273 38.0564 142.179 37.3256 141.855C36.6025 141.539 35.954 141.043 35.3802 140.365C34.8064 139.687 34.4197 138.961 34.22 138.187C34.0281 137.422 34.0666 136.65 34.3356 135.872C34.6214 135.095 35.1627 134.37 35.9595 133.695L42.0039 128.577L43.0623 129.828Z" fill="white"/>
<path d="M59.7307 144.965L52.0765 154.792L50.7842 153.785L56.4917 146.458L47.5181 151.241L46.6093 150.533L49.0476 140.637L43.329 147.978L42.0368 146.972L49.691 137.145L51.0827 138.229L48.391 149.183L58.3533 143.892L59.7307 144.965Z" fill="white"/>
<path d="M70.2554 149.054C71.5407 149.522 72.563 150.169 73.3221 150.995C74.0967 151.813 74.5698 152.758 74.7413 153.83C74.9241 154.905 74.7958 156.046 74.3562 157.253C73.9166 158.459 73.2809 159.415 72.449 160.121C71.6325 160.82 70.6644 161.234 69.5447 161.362C68.4405 161.483 67.2457 161.31 65.9604 160.841L62.2904 159.504L66.5854 147.716L70.2554 149.054ZM66.4225 159.573C67.9446 160.128 69.2518 160.151 70.344 159.642C71.4403 159.122 72.2534 158.134 72.7834 156.68C73.3174 155.214 73.3285 153.922 72.8166 152.803C72.316 151.688 71.3102 150.856 69.7994 150.305L67.6684 149.529L64.2916 158.797L66.4225 159.573Z" fill="white"/>
<path d="M81.2776 164.603C80.1264 164.431 79.1159 164.007 78.2462 163.331C77.3783 162.643 76.7372 161.777 76.3229 160.733C75.9223 159.678 75.8124 158.545 75.9931 157.335C76.1739 156.124 76.6091 155.079 77.2986 154.199C78.0017 153.309 78.8679 152.668 79.8971 152.276C80.9281 151.872 82.0192 151.756 83.1705 151.927C84.3336 152.101 85.3491 152.532 86.217 153.22C87.0868 153.895 87.7228 154.755 88.1252 155.798C88.5276 156.841 88.6375 157.973 88.455 159.196C88.2724 160.418 87.8364 161.469 87.1469 162.349C86.4574 163.229 85.5971 163.871 84.5661 164.275C83.5369 164.667 82.4408 164.777 81.2776 164.603ZM81.4877 163.196C82.3541 163.326 83.1616 163.24 83.9102 162.939C84.6707 162.64 85.3026 162.146 85.8059 161.457C86.3211 160.77 86.6522 159.933 86.7993 158.948C86.9482 157.951 86.8758 157.055 86.5822 156.259C86.3022 155.453 85.8481 154.796 85.22 154.29C84.5919 153.784 83.8387 153.465 82.9604 153.334C82.0822 153.203 81.2687 153.287 80.5201 153.588C79.7715 153.889 79.1396 154.383 78.6244 155.07C78.1229 155.748 77.7977 156.585 77.6488 157.582C77.5017 158.567 77.5681 159.463 77.8481 160.269C78.14 161.077 78.6 161.734 79.2281 162.24C79.8681 162.748 80.6213 163.067 81.4877 163.196Z" fill="white"/>
<path d="M92.4294 163.653L96.8198 163.536L96.8551 164.868L90.8272 165.028L90.4952 152.486L92.1326 152.443L92.4294 163.653Z" fill="white"/>
<path d="M106.72 163.304C105.579 163.536 104.485 163.484 103.436 163.147C102.385 162.798 101.487 162.203 100.74 161.364C100.002 160.51 99.5112 159.483 99.2666 158.284C99.022 157.084 99.0731 155.953 99.4197 154.891C99.7757 153.814 100.37 152.915 101.203 152.194C102.033 151.461 103.019 150.979 104.159 150.746C105.311 150.511 106.413 150.568 107.464 150.917C108.512 151.254 109.404 151.844 110.139 152.686C110.874 153.528 111.366 154.555 111.613 155.766C111.859 156.977 111.81 158.114 111.463 159.177C111.116 160.239 110.528 161.137 109.698 161.87C108.865 162.591 107.872 163.069 106.72 163.304ZM106.436 161.91C107.294 161.735 108.024 161.378 108.624 160.84C109.236 160.298 109.661 159.618 109.898 158.798C110.146 157.976 110.171 157.076 109.972 156.101C109.771 155.113 109.396 154.295 108.847 153.648C108.308 152.986 107.657 152.525 106.894 152.264C106.13 152.004 105.313 151.962 104.443 152.139C103.573 152.317 102.838 152.675 102.237 153.214C101.637 153.753 101.212 154.433 100.964 155.256C100.724 156.064 100.705 156.962 100.907 157.949C101.106 158.925 101.475 159.744 102.014 160.406C102.565 161.065 103.222 161.525 103.985 161.785C104.761 162.044 105.578 162.085 106.436 161.91Z" fill="white"/>
<path d="M122.054 157.896L117.333 154.296L115.504 155.052L117.462 159.793L115.948 160.418L111.158 148.823L114.901 147.277C115.777 146.915 116.577 146.76 117.299 146.812C118.033 146.859 118.655 147.076 119.165 147.463C119.676 147.849 120.066 148.37 120.336 149.024C120.666 149.822 120.724 150.623 120.51 151.425C120.307 152.223 119.787 152.912 118.949 153.492L123.867 157.147L122.054 157.896ZM115.002 153.837L117.231 152.916C118.052 152.577 118.585 152.123 118.83 151.555C119.071 150.975 119.052 150.346 118.772 149.67C118.488 148.982 118.063 148.535 117.497 148.327C116.942 148.115 116.248 148.181 115.417 148.524L113.187 149.445L115.002 153.837Z" fill="white"/>
<path d="M127.286 139.893L134.731 149.992L133.413 150.964L125.968 140.865L127.286 139.893Z" fill="white"/>
<path d="M139.414 133.755C140.143 134.502 140.493 135.376 140.463 136.377C140.434 137.361 139.895 138.365 138.847 139.387L137.121 141.071L140.778 144.821L139.605 145.964L130.845 136.983L133.745 134.155C134.758 133.166 135.766 132.661 136.767 132.64C137.778 132.61 138.66 132.982 139.414 133.755ZM137.905 138.42C138.558 137.784 138.9 137.173 138.933 136.587C138.966 136.002 138.727 135.448 138.216 134.924C137.135 133.816 135.959 133.882 134.687 135.122L132.96 136.806L136.178 140.104L137.905 138.42Z" fill="white"/>
<path d="M150.456 133.741C149.97 134.411 149.416 134.928 148.795 135.293C148.171 135.641 147.541 135.813 146.905 135.811C146.259 135.802 145.656 135.601 145.096 135.208L146.122 133.796C146.633 134.093 147.177 134.192 147.754 134.092C148.328 133.975 148.855 133.587 149.335 132.927C149.794 132.296 149.998 131.688 149.949 131.103C149.896 130.501 149.623 130.02 149.128 129.66C148.739 129.378 148.346 129.256 147.948 129.293C147.55 129.33 147.172 129.463 146.813 129.692C146.454 129.92 146.004 130.254 145.464 130.691C144.802 131.234 144.236 131.646 143.765 131.927C143.301 132.198 142.778 132.345 142.198 132.368C141.615 132.374 141.008 132.148 140.377 131.69C139.823 131.287 139.436 130.79 139.213 130.199C138.99 129.607 138.946 128.974 139.08 128.3C139.221 127.616 139.531 126.944 140.011 126.284C140.702 125.332 141.505 124.729 142.418 124.472C143.338 124.207 144.219 124.321 145.062 124.814L144.004 126.27C143.58 126.037 143.092 125.994 142.54 126.141C141.978 126.282 141.482 126.648 141.051 127.24C140.649 127.793 140.467 128.351 140.504 128.912C140.532 129.466 140.803 129.93 141.317 130.304C141.686 130.572 142.061 130.689 142.442 130.654C142.83 130.61 143.197 130.483 143.542 130.274C143.884 130.048 144.334 129.715 144.891 129.274C145.563 128.738 146.139 128.334 146.619 128.06C147.09 127.779 147.621 127.631 148.211 127.615C148.792 127.592 149.402 127.813 150.043 128.279C150.538 128.638 150.909 129.108 151.155 129.688C151.401 130.267 151.474 130.913 151.371 131.625C151.269 132.337 150.964 133.042 150.456 133.741Z" fill="white"/>
<path d="M144.224 119.577L151.377 123.019C152.383 123.503 153.246 123.618 153.967 123.366C154.693 123.102 155.266 122.533 155.688 121.657C156.104 120.792 156.186 119.999 155.933 119.278C155.686 118.547 155.06 117.939 154.054 117.455L146.901 114.013L147.611 112.537L154.748 115.971C155.689 116.424 156.393 116.996 156.859 117.686C157.315 118.372 157.544 119.114 157.545 119.914C157.552 120.703 157.363 121.497 156.978 122.298C156.593 123.098 156.087 123.747 155.461 124.245C154.841 124.732 154.121 125.011 153.3 125.083C152.475 125.138 151.592 124.94 150.651 124.487L143.514 121.053L144.224 119.577Z" fill="white"/>
<path d="M151.256 98.1851L163.349 101.17L162.957 102.76L153.939 100.535L161.965 106.78L161.689 107.898L151.657 109.705L160.692 111.935L160.3 113.525L148.207 110.54L148.629 108.828L159.73 106.821L150.838 99.8802L151.256 98.1851Z" fill="white"/>
<path d="M160.188 82.7184L160.572 88.1768L163.426 88.9862L163.548 90.7099L150.786 87.0621L150.653 85.1768L162.778 79.793L162.9 81.5167L160.188 82.7184ZM158.892 83.2788L152.731 85.9867L159.211 87.8036L158.892 83.2788Z" fill="white"/>
<path d="M146.363 67.1379L158.345 63.7336L158.792 65.3092L149.858 67.8477L159.924 69.2916L160.239 70.3997L152.423 76.9428L161.375 74.3994L161.823 75.975L149.841 79.3794L149.359 77.6825L158.004 70.436L146.84 68.8174L146.363 67.1379Z" fill="white"/>
<path d="M145.816 64.4285L149.56 62.5387L147.5 58.4572L148.705 57.8489L150.765 61.9305L154.622 59.984L152.318 55.4203L153.524 54.812L156.565 60.838L145.349 66.4991L142.307 60.4731L143.512 59.8648L145.816 64.4285Z" fill="white"/>
<path d="M136.125 51.8482L137.204 51.0675L139.209 53.8386L148.295 47.266L149.255 48.5932L140.169 55.1657L142.184 57.9513L141.104 58.732L136.125 51.8482Z" fill="white"/>
<path d="M49.3866 37.7126C62.2089 27.9399 78.1251 23.1185 94.215 24.1327C110.305 25.147 125.49 31.9289 136.983 43.2343L136.29 43.9388C124.966 32.8001 110.006 26.1182 94.1529 25.1189C78.3002 24.1196 62.6188 28.87 49.9856 38.4985L49.3866 37.7126Z" fill="white"/>
<circle cx="92" cy="91" r="5" fill="#E5E5E5"/>
</svg>
