<svg width="32" height="35" viewBox="0 0 32 35" fill="none" xmlns="http://www.w3.org/2000/svg">
<path d="M16 3.94238C13.254 3.94238 11 6.34272 11 9.26701V10.3319H6.06201L6.00001 11.3308L5.00001 30.4995L4.93701 31.6304H27.062L27 30.4984L26 11.3298L25.937 10.3319H21V9.26701C21 6.34272 18.746 3.94238 16 3.94238ZM16 6.07223C16.7957 6.07223 17.5587 6.40883 18.1213 7.00796C18.6839 7.6071 19 8.4197 19 9.26701V10.3319H13V9.26701C13 8.4197 13.3161 7.6071 13.8787 7.00796C14.4413 6.40883 15.2044 6.07223 16 6.07223ZM7.93701 12.4618H11V15.6566H13V12.4618H19V15.6566H21V12.4618H24.063L24.938 29.5006H7.06301L7.93701 12.4618Z" fill="#222"/>
</svg>
