<svg width="23" height="25" viewBox="0 0 23 25" fill="none" xmlns="http://www.w3.org/2000/svg">
<path d="M21.9257 20.3206C21.3554 18.9479 20.5279 17.7009 19.4892 16.6493C18.4536 15.5946 17.2269 14.7537 15.8768 14.173C15.8647 14.1669 15.8526 14.1638 15.8405 14.1576C17.7238 12.7751 18.9481 10.5231 18.9481 7.98237C18.9481 3.77335 15.5926 0.363129 11.4512 0.363129C7.30983 0.363129 3.95438 3.77335 3.95438 7.98237C3.95438 10.5231 5.17866 12.7751 7.06195 14.1607C7.04985 14.1669 7.03776 14.1699 7.02567 14.1761C5.6714 14.7567 4.45619 15.5893 3.41328 16.6523C2.37554 17.7048 1.54815 18.9515 0.976799 20.3237C0.415509 21.6671 0.112793 23.1073 0.0850365 24.5665C0.0842297 24.5993 0.0898887 24.6319 0.10168 24.6625C0.113472 24.693 0.131157 24.7208 0.153694 24.7443C0.176232 24.7678 0.203165 24.7864 0.232906 24.7992C0.262648 24.8119 0.294597 24.8184 0.326871 24.8184H2.14063C2.27363 24.8184 2.37944 24.7109 2.38246 24.5788C2.44292 22.207 3.38002 19.9858 5.03659 18.3021C6.75059 16.5602 9.02685 15.6016 11.4512 15.6016C13.8756 15.6016 16.1519 16.5602 17.8659 18.3021C19.5224 19.9858 20.4595 22.207 20.52 24.5788C20.523 24.714 20.6288 24.8184 20.7618 24.8184H22.5756C22.6079 24.8184 22.6398 24.8119 22.6696 24.7992C22.6993 24.7864 22.7262 24.7678 22.7488 24.7443C22.7713 24.7208 22.789 24.693 22.8008 24.6625C22.8126 24.6319 22.8182 24.5993 22.8174 24.5665C22.7872 23.098 22.4879 21.6694 21.9257 20.3206ZM11.4512 13.2667C10.0637 13.2667 8.75781 12.7167 7.77536 11.7183C6.79291 10.7198 6.2518 9.39255 6.2518 7.98237C6.2518 6.5722 6.79291 5.24497 7.77536 4.24648C8.75781 3.24799 10.0637 2.69806 11.4512 2.69806C12.8388 2.69806 14.1447 3.24799 15.1271 4.24648C16.1096 5.24497 16.6507 6.5722 16.6507 7.98237C16.6507 9.39255 16.1096 10.7198 15.1271 11.7183C14.1447 12.7167 12.8388 13.2667 11.4512 13.2667Z" fill="white"/>
</svg>
