<svg width="23" height="24" viewBox="0 0 23 24" fill="none" xmlns="http://www.w3.org/2000/svg">
<path d="M14.7493 13.1701C14.8791 13.1701 15.3658 13.3901 16.2093 13.8301C17.0528 14.2701 17.4996 14.5351 17.5495 14.6251C17.5694 14.6751 17.5794 14.7501 17.5794 14.8501C17.5794 15.1801 17.4946 15.5601 17.3249 15.9901C17.1651 16.3801 16.8108 16.7076 16.2617 16.9726C15.7127 17.2376 15.2036 17.3701 14.7344 17.3701C14.1654 17.3701 13.217 17.0601 11.8893 16.4401C10.911 15.9901 10.0625 15.4001 9.34375 14.6701C8.625 13.9401 7.88628 13.0151 7.1276 11.8951C6.40885 10.8251 6.05447 9.85514 6.06445 8.98514V8.86514C6.0944 7.95514 6.46376 7.16514 7.17253 6.49514C7.41211 6.27514 7.67166 6.16514 7.95117 6.16514C8.01107 6.16514 8.10091 6.17264 8.2207 6.18764C8.34049 6.20264 8.43533 6.21014 8.50521 6.21014C8.69488 6.21014 8.82715 6.24264 8.90202 6.30764C8.97689 6.37264 9.05425 6.51014 9.13411 6.72014C9.21397 6.92014 9.37869 7.36014 9.62825 8.04014C9.87782 8.72014 10.0026 9.09514 10.0026 9.16514C10.0026 9.37514 9.8304 9.66264 9.486 10.0276C9.1416 10.3926 8.9694 10.6251 8.9694 10.7251C8.9694 10.7951 8.99436 10.8701 9.04427 10.9501C9.38368 11.6801 9.89279 12.3651 10.5716 13.0051C11.1306 13.5351 11.8843 14.0401 12.8327 14.5201C12.9525 14.5901 13.0623 14.6251 13.1621 14.6251C13.3118 14.6251 13.5814 14.3826 13.9707 13.8976C14.36 13.4126 14.6196 13.1701 14.7493 13.1701ZM11.7096 21.1201C12.9774 21.1201 14.1928 20.8701 15.3558 20.3701C16.5188 19.8701 17.5195 19.2001 18.3581 18.3601C19.1966 17.5201 19.8654 16.5176 20.3646 15.3526C20.8637 14.1876 21.1133 12.9701 21.1133 11.7001C21.1133 10.4301 20.8637 9.21264 20.3646 8.04764C19.8654 6.88264 19.1966 5.88014 18.3581 5.04014C17.5195 4.20014 16.5188 3.53014 15.3558 3.03014C14.1928 2.53014 12.9774 2.28014 11.7096 2.28014C10.4418 2.28014 9.22645 2.53014 8.06348 3.03014C6.9005 3.53014 5.89974 4.20014 5.0612 5.04014C4.22266 5.88014 3.55382 6.88264 3.05469 8.04764C2.55556 9.21264 2.30599 10.4301 2.30599 11.7001C2.30599 13.7301 2.90495 15.5701 4.10286 17.2201L2.91992 20.7151L6.54362 19.5601C8.12088 20.6001 9.84288 21.1201 11.7096 21.1201ZM11.7096 0.390137C13.237 0.390137 14.6969 0.690137 16.0895 1.29014C17.4821 1.89014 18.6825 2.69514 19.6908 3.70514C20.699 4.71514 21.5026 5.91764 22.1016 7.31264C22.7005 8.70764 23 10.1701 23 11.7001C23 13.2301 22.7005 14.6926 22.1016 16.0876C21.5026 17.4826 20.699 18.6851 19.6908 19.6951C18.6825 20.7051 17.4821 21.5101 16.0895 22.1101C14.6969 22.7101 13.237 23.0101 11.7096 23.0101C9.76302 23.0101 7.94119 22.5401 6.24414 21.6001L0 23.6101L2.03646 17.5351C0.958333 15.7551 0.419271 13.8101 0.419271 11.7001C0.419271 10.1701 0.71875 8.70764 1.31771 7.31264C1.91667 5.91764 2.72027 4.71514 3.72852 3.70514C4.73676 2.69514 5.93717 1.89014 7.32975 1.29014C8.72233 0.690137 10.1823 0.390137 11.7096 0.390137Z" fill="white"/>
</svg>
